<?xml version="1.0" encoding="utf-8" standalone="no"?>
<!DOCTYPE svg PUBLIC "-//W3C//DTD SVG 1.1//EN"
  "http://www.w3.org/Graphics/SVG/1.1/DTD/svg11.dtd">
<svg xmlns:xlink="http://www.w3.org/1999/xlink" width="413.002813pt" height="235.659171pt" viewBox="0 0 413.002813 235.659171" xmlns="http://www.w3.org/2000/svg" version="1.1">
 <metadata>
  <rdf:RDF xmlns:dc="http://purl.org/dc/elements/1.1/" xmlns:cc="http://creativecommons.org/ns#" xmlns:rdf="http://www.w3.org/1999/02/22-rdf-syntax-ns#">
   <cc:Work>
    <dc:type rdf:resource="http://purl.org/dc/dcmitype/StillImage"/>
    <dc:date>2026-06-26T17:09:45.184023</dc:date>
    <dc:format>image/svg+xml</dc:format>
    <dc:creator>
     <cc:Agent>
      <dc:title>Matplotlib v3.10.9, https://matplotlib.org/</dc:title>
     </cc:Agent>
    </dc:creator>
   </cc:Work>
  </rdf:RDF>
 </metadata>
 <defs>
  <style type="text/css">*{stroke-linejoin: round; stroke-linecap: butt}</style>
 </defs>
 <g id="figure_1">
  <g id="patch_1">
   <path d="M -0 235.659171 
L 413.002812 235.659171 
L 413.002812 0 
L -0 0 
z
" style="fill: #ffffff"/>
  </g>
  <g id="axes_1">
   <g id="patch_2">
    <path d="M 41.122812 183.518437 
L 409.402812 183.518437 
L 409.402812 17.198437 
L 41.122812 17.198437 
z
" style="fill: #ffffff"/>
   </g>
   <g id="matplotlib.axis_1">
    <g id="xtick_1">
     <g id="line2d_1">
      <defs>
       <path id="m94e09ed36c" d="M 0 0 
L 0 3.5 
" style="stroke: #000000; stroke-width: 0.8"/>
      </defs>
      <g>
       <use xlink:href="#m94e09ed36c" x="74.257658" y="183.518437" style="stroke: #000000; stroke-width: 0.8"/>
      </g>
     </g>
     <g id="text_1">
      <!-- mlp -->
      <g transform="translate(59.997276 203.052725) rotate(-28) scale(0.08 -0.08)">
       <defs>
        <path id="DejaVuSerif-6d" d="M 3316 2675 
Q 3481 3041 3739 3227 
Q 3997 3413 4341 3413 
Q 4863 3413 5119 3089 
Q 5375 2766 5375 2113 
L 5375 331 
L 5894 331 
L 5894 0 
L 4300 0 
L 4300 331 
L 4800 331 
L 4800 2047 
Q 4800 2556 4650 2772 
Q 4500 2988 4153 2988 
Q 3769 2988 3567 2697 
Q 3366 2406 3366 1850 
L 3366 331 
L 3866 331 
L 3866 0 
L 2291 0 
L 2291 331 
L 2791 331 
L 2791 2069 
Q 2791 2566 2641 2777 
Q 2491 2988 2144 2988 
Q 1759 2988 1557 2697 
Q 1356 2406 1356 1850 
L 1356 331 
L 1856 331 
L 1856 0 
L 263 0 
L 263 331 
L 781 331 
L 781 2994 
L 231 2994 
L 231 3322 
L 1356 3322 
L 1356 2731 
Q 1516 3063 1762 3238 
Q 2009 3413 2322 3413 
Q 2709 3413 2968 3220 
Q 3228 3028 3316 2675 
z
" transform="scale(0.015625)"/>
        <path id="DejaVuSerif-6c" d="M 1313 331 
L 1856 331 
L 1856 0 
L 184 0 
L 184 331 
L 738 331 
L 738 4531 
L 184 4531 
L 184 4863 
L 1313 4863 
L 1313 331 
z
" transform="scale(0.015625)"/>
        <path id="DejaVuSerif-70" d="M 1313 1825 
L 1313 1497 
Q 1313 897 1542 583 
Q 1772 269 2209 269 
Q 2650 269 2876 622 
Q 3103 975 3103 1663 
Q 3103 2353 2876 2703 
Q 2650 3053 2209 3053 
Q 1772 3053 1542 2737 
Q 1313 2422 1313 1825 
z
M 738 2988 
L 184 2988 
L 184 3322 
L 1313 3322 
L 1313 2803 
Q 1481 3116 1742 3264 
Q 2003 3413 2388 3413 
Q 3000 3413 3387 2928 
Q 3775 2444 3775 1663 
Q 3775 881 3387 395 
Q 3000 -91 2388 -91 
Q 2003 -91 1742 57 
Q 1481 206 1313 519 
L 1313 -997 
L 1856 -997 
L 1856 -1331 
L 184 -1331 
L 184 -997 
L 738 -997 
L 738 2988 
z
" transform="scale(0.015625)"/>
       </defs>
       <use xlink:href="#DejaVuSerif-6d"/>
       <use xlink:href="#DejaVuSerif-6c" transform="translate(94.824219 0)"/>
       <use xlink:href="#DejaVuSerif-70" transform="translate(126.806641 0)"/>
      </g>
     </g>
    </g>
    <g id="xtick_2">
     <g id="line2d_2">
      <g>
       <use xlink:href="#m94e09ed36c" x="117.401988" y="183.518437" style="stroke: #000000; stroke-width: 0.8"/>
      </g>
     </g>
     <g id="text_2">
      <!-- linear -->
      <g transform="translate(95.784445 206.964597) rotate(-28) scale(0.08 -0.08)">
       <defs>
        <path id="DejaVuSerif-69" d="M 622 4353 
Q 622 4497 726 4603 
Q 831 4709 978 4709 
Q 1122 4709 1226 4603 
Q 1331 4497 1331 4353 
Q 1331 4206 1228 4103 
Q 1125 4000 978 4000 
Q 831 4000 726 4103 
Q 622 4206 622 4353 
z
M 1356 331 
L 1900 331 
L 1900 0 
L 231 0 
L 231 331 
L 781 331 
L 781 2988 
L 231 2988 
L 231 3322 
L 1356 3322 
L 1356 331 
z
" transform="scale(0.015625)"/>
        <path id="DejaVuSerif-6e" d="M 263 0 
L 263 331 
L 781 331 
L 781 2988 
L 231 2988 
L 231 3322 
L 1356 3322 
L 1356 2731 
Q 1516 3069 1770 3241 
Q 2025 3413 2363 3413 
Q 2913 3413 3172 3097 
Q 3431 2781 3431 2113 
L 3431 331 
L 3944 331 
L 3944 0 
L 2356 0 
L 2356 331 
L 2853 331 
L 2853 1931 
Q 2853 2541 2703 2767 
Q 2553 2994 2175 2994 
Q 1775 2994 1565 2701 
Q 1356 2409 1356 1850 
L 1356 331 
L 1856 331 
L 1856 0 
L 263 0 
z
" transform="scale(0.015625)"/>
        <path id="DejaVuSerif-65" d="M 3469 1600 
L 991 1600 
L 991 1575 
Q 991 903 1244 561 
Q 1497 219 1991 219 
Q 2369 219 2611 417 
Q 2853 616 2950 1006 
L 3413 1006 
Q 3275 459 2904 184 
Q 2534 -91 1931 -91 
Q 1203 -91 761 389 
Q 319 869 319 1663 
Q 319 2450 753 2931 
Q 1188 3413 1894 3413 
Q 2647 3413 3050 2948 
Q 3453 2484 3469 1600 
z
M 2791 1931 
Q 2772 2513 2545 2808 
Q 2319 3103 1894 3103 
Q 1497 3103 1269 2806 
Q 1041 2509 991 1931 
L 2791 1931 
z
" transform="scale(0.015625)"/>
        <path id="DejaVuSerif-61" d="M 2547 1044 
L 2547 1747 
L 1806 1747 
Q 1378 1747 1168 1562 
Q 959 1378 959 997 
Q 959 650 1171 447 
Q 1384 244 1747 244 
Q 2106 244 2326 466 
Q 2547 688 2547 1044 
z
M 3122 2075 
L 3122 331 
L 3634 331 
L 3634 0 
L 2547 0 
L 2547 359 
Q 2356 128 2106 18 
Q 1856 -91 1522 -91 
Q 969 -91 644 203 
Q 319 497 319 997 
Q 319 1513 691 1797 
Q 1063 2081 1741 2081 
L 2547 2081 
L 2547 2309 
Q 2547 2688 2317 2895 
Q 2088 3103 1672 3103 
Q 1328 3103 1125 2947 
Q 922 2791 872 2484 
L 575 2484 
L 575 3156 
Q 875 3284 1158 3348 
Q 1441 3413 1709 3413 
Q 2400 3413 2761 3070 
Q 3122 2728 3122 2075 
z
" transform="scale(0.015625)"/>
        <path id="DejaVuSerif-72" d="M 3059 3328 
L 3059 2497 
L 2728 2497 
Q 2713 2744 2591 2866 
Q 2469 2988 2234 2988 
Q 1809 2988 1582 2694 
Q 1356 2400 1356 1850 
L 1356 331 
L 2022 331 
L 2022 0 
L 263 0 
L 263 331 
L 781 331 
L 781 2994 
L 231 2994 
L 231 3322 
L 1356 3322 
L 1356 2731 
Q 1525 3078 1790 3245 
Q 2056 3413 2438 3413 
Q 2578 3413 2733 3391 
Q 2888 3369 3059 3328 
z
" transform="scale(0.015625)"/>
       </defs>
       <use xlink:href="#DejaVuSerif-6c"/>
       <use xlink:href="#DejaVuSerif-69" transform="translate(31.982422 0)"/>
       <use xlink:href="#DejaVuSerif-6e" transform="translate(63.964844 0)"/>
       <use xlink:href="#DejaVuSerif-65" transform="translate(128.369141 0)"/>
       <use xlink:href="#DejaVuSerif-61" transform="translate(187.548828 0)"/>
       <use xlink:href="#DejaVuSerif-72" transform="translate(247.167969 0)"/>
      </g>
     </g>
    </g>
    <g id="xtick_3">
     <g id="line2d_3">
      <g>
       <use xlink:href="#m94e09ed36c" x="160.546318" y="183.518437" style="stroke: #000000; stroke-width: 0.8"/>
      </g>
     </g>
     <g id="text_3">
      <!-- pca50 -->
      <g transform="translate(138.087767 207.411769) rotate(-28) scale(0.08 -0.08)">
       <defs>
        <path id="DejaVuSerif-63" d="M 3291 997 
Q 3169 466 2822 187 
Q 2475 -91 1925 -91 
Q 1200 -91 759 389 
Q 319 869 319 1663 
Q 319 2459 759 2936 
Q 1200 3413 1925 3413 
Q 2241 3413 2553 3339 
Q 2866 3266 3181 3116 
L 3181 2266 
L 2847 2266 
Q 2781 2703 2561 2903 
Q 2341 3103 1931 3103 
Q 1466 3103 1228 2742 
Q 991 2381 991 1663 
Q 991 944 1227 581 
Q 1463 219 1931 219 
Q 2303 219 2525 412 
Q 2747 606 2828 997 
L 3291 997 
z
" transform="scale(0.015625)"/>
        <path id="DejaVuSerif-35" d="M 3219 4666 
L 3219 4153 
L 1081 4153 
L 1081 2816 
Q 1244 2928 1461 2984 
Q 1678 3041 1947 3041 
Q 2703 3041 3140 2622 
Q 3578 2203 3578 1478 
Q 3578 738 3136 323 
Q 2694 -91 1894 -91 
Q 1572 -91 1234 -12 
Q 897 66 544 225 
L 544 1131 
L 897 1131 
Q 925 688 1179 453 
Q 1434 219 1894 219 
Q 2388 219 2653 544 
Q 2919 869 2919 1478 
Q 2919 2084 2655 2407 
Q 2391 2731 1894 2731 
Q 1613 2731 1398 2631 
Q 1184 2531 1019 2322 
L 750 2322 
L 750 4666 
L 3219 4666 
z
" transform="scale(0.015625)"/>
        <path id="DejaVuSerif-30" d="M 2034 219 
Q 2513 219 2750 744 
Q 2988 1269 2988 2328 
Q 2988 3391 2750 3916 
Q 2513 4441 2034 4441 
Q 1556 4441 1318 3916 
Q 1081 3391 1081 2328 
Q 1081 1269 1318 744 
Q 1556 219 2034 219 
z
M 2034 -91 
Q 1275 -91 848 546 
Q 422 1184 422 2328 
Q 422 3475 848 4112 
Q 1275 4750 2034 4750 
Q 2797 4750 3222 4112 
Q 3647 3475 3647 2328 
Q 3647 1184 3222 546 
Q 2797 -91 2034 -91 
z
" transform="scale(0.015625)"/>
       </defs>
       <use xlink:href="#DejaVuSerif-70"/>
       <use xlink:href="#DejaVuSerif-63" transform="translate(64.013672 0)"/>
       <use xlink:href="#DejaVuSerif-61" transform="translate(120.019531 0)"/>
       <use xlink:href="#DejaVuSerif-35" transform="translate(179.638672 0)"/>
       <use xlink:href="#DejaVuSerif-30" transform="translate(243.261719 0)"/>
      </g>
     </g>
    </g>
    <g id="xtick_4">
     <g id="line2d_4">
      <g>
       <use xlink:href="#m94e09ed36c" x="203.690648" y="183.518437" style="stroke: #000000; stroke-width: 0.8"/>
      </g>
     </g>
     <g id="text_4">
      <!-- tangent subspace -->
      <g transform="translate(139.730927 229.449938) rotate(-28) scale(0.08 -0.08)">
       <defs>
        <path id="DejaVuSerif-74" d="M 691 2988 
L 184 2988 
L 184 3322 
L 691 3322 
L 691 4353 
L 1269 4353 
L 1269 3322 
L 2350 3322 
L 2350 2988 
L 1269 2988 
L 1269 878 
Q 1269 456 1350 337 
Q 1431 219 1650 219 
Q 1875 219 1978 351 
Q 2081 484 2088 781 
L 2522 781 
Q 2497 328 2275 118 
Q 2053 -91 1600 -91 
Q 1103 -91 897 129 
Q 691 350 691 878 
L 691 2988 
z
" transform="scale(0.015625)"/>
        <path id="DejaVuSerif-67" d="M 3359 2988 
L 3359 72 
Q 3359 -644 2965 -1033 
Q 2572 -1422 1844 -1422 
Q 1516 -1422 1216 -1362 
Q 916 -1303 641 -1184 
L 641 -488 
L 941 -488 
Q 997 -813 1206 -963 
Q 1416 -1113 1806 -1113 
Q 2313 -1113 2548 -827 
Q 2784 -541 2784 72 
L 2784 519 
Q 2616 206 2355 57 
Q 2094 -91 1709 -91 
Q 1097 -91 708 395 
Q 319 881 319 1663 
Q 319 2444 706 2928 
Q 1094 3413 1709 3413 
Q 2094 3413 2355 3264 
Q 2616 3116 2784 2803 
L 2784 3322 
L 3909 3322 
L 3909 2988 
L 3359 2988 
z
M 2784 1825 
Q 2784 2422 2554 2737 
Q 2325 3053 1888 3053 
Q 1444 3053 1217 2703 
Q 991 2353 991 1663 
Q 991 975 1217 622 
Q 1444 269 1888 269 
Q 2325 269 2554 583 
Q 2784 897 2784 1497 
L 2784 1825 
z
" transform="scale(0.015625)"/>
        <path id="DejaVuSerif-20" transform="scale(0.015625)"/>
        <path id="DejaVuSerif-73" d="M 359 184 
L 359 959 
L 691 959 
Q 703 588 923 403 
Q 1144 219 1575 219 
Q 1963 219 2166 364 
Q 2369 509 2369 788 
Q 2369 1006 2220 1140 
Q 2072 1275 1594 1428 
L 1178 1569 
Q 750 1706 558 1912 
Q 366 2119 366 2438 
Q 366 2894 700 3153 
Q 1034 3413 1625 3413 
Q 1888 3413 2178 3344 
Q 2469 3275 2778 3144 
L 2778 2419 
L 2447 2419 
Q 2434 2741 2221 2922 
Q 2009 3103 1644 3103 
Q 1281 3103 1095 2975 
Q 909 2847 909 2591 
Q 909 2381 1050 2254 
Q 1191 2128 1613 1997 
L 2069 1856 
Q 2541 1709 2748 1489 
Q 2956 1269 2956 922 
Q 2956 450 2595 179 
Q 2234 -91 1600 -91 
Q 1278 -91 972 -22 
Q 666 47 359 184 
z
" transform="scale(0.015625)"/>
        <path id="DejaVuSerif-75" d="M 2266 3322 
L 3341 3322 
L 3341 331 
L 3884 331 
L 3884 0 
L 2766 0 
L 2766 588 
Q 2606 256 2353 82 
Q 2100 -91 1766 -91 
Q 1213 -91 952 223 
Q 691 538 691 1209 
L 691 2988 
L 172 2988 
L 172 3322 
L 1269 3322 
L 1269 1388 
Q 1269 781 1417 556 
Q 1566 331 1947 331 
Q 2347 331 2556 625 
Q 2766 919 2766 1478 
L 2766 2988 
L 2266 2988 
L 2266 3322 
z
" transform="scale(0.015625)"/>
        <path id="DejaVuSerif-62" d="M 738 331 
L 738 4531 
L 184 4531 
L 184 4863 
L 1313 4863 
L 1313 2803 
Q 1481 3116 1742 3264 
Q 2003 3413 2388 3413 
Q 3000 3413 3387 2928 
Q 3775 2444 3775 1663 
Q 3775 881 3387 395 
Q 3000 -91 2388 -91 
Q 2003 -91 1742 57 
Q 1481 206 1313 519 
L 1313 0 
L 184 0 
L 184 331 
L 738 331 
z
M 1313 1497 
Q 1313 897 1542 583 
Q 1772 269 2209 269 
Q 2650 269 2876 622 
Q 3103 975 3103 1663 
Q 3103 2353 2876 2703 
Q 2650 3053 2209 3053 
Q 1772 3053 1542 2737 
Q 1313 2422 1313 1825 
L 1313 1497 
z
" transform="scale(0.015625)"/>
       </defs>
       <use xlink:href="#DejaVuSerif-74"/>
       <use xlink:href="#DejaVuSerif-61" transform="translate(40.185547 0)"/>
       <use xlink:href="#DejaVuSerif-6e" transform="translate(99.804688 0)"/>
       <use xlink:href="#DejaVuSerif-67" transform="translate(164.208984 0)"/>
       <use xlink:href="#DejaVuSerif-65" transform="translate(228.222656 0)"/>
       <use xlink:href="#DejaVuSerif-6e" transform="translate(287.402344 0)"/>
       <use xlink:href="#DejaVuSerif-74" transform="translate(351.806641 0)"/>
       <use xlink:href="#DejaVuSerif-20" transform="translate(391.992188 0)"/>
       <use xlink:href="#DejaVuSerif-73" transform="translate(423.779297 0)"/>
       <use xlink:href="#DejaVuSerif-75" transform="translate(475.097656 0)"/>
       <use xlink:href="#DejaVuSerif-62" transform="translate(539.501953 0)"/>
       <use xlink:href="#DejaVuSerif-73" transform="translate(603.515625 0)"/>
       <use xlink:href="#DejaVuSerif-70" transform="translate(654.833984 0)"/>
       <use xlink:href="#DejaVuSerif-61" transform="translate(718.847656 0)"/>
       <use xlink:href="#DejaVuSerif-63" transform="translate(778.466797 0)"/>
       <use xlink:href="#DejaVuSerif-65" transform="translate(834.472656 0)"/>
      </g>
     </g>
    </g>
    <g id="xtick_5">
     <g id="line2d_5">
      <g>
       <use xlink:href="#m94e09ed36c" x="246.834977" y="183.518437" style="stroke: #000000; stroke-width: 0.8"/>
      </g>
     </g>
     <g id="text_5">
      <!-- graph geodesic -->
      <g transform="translate(191.07784 225.088547) rotate(-28) scale(0.08 -0.08)">
       <defs>
        <path id="DejaVuSerif-68" d="M 263 0 
L 263 331 
L 781 331 
L 781 4531 
L 231 4531 
L 231 4863 
L 1356 4863 
L 1356 2731 
Q 1516 3069 1770 3241 
Q 2025 3413 2363 3413 
Q 2913 3413 3172 3097 
Q 3431 2781 3431 2113 
L 3431 331 
L 3944 331 
L 3944 0 
L 2356 0 
L 2356 331 
L 2853 331 
L 2853 1931 
Q 2853 2541 2704 2764 
Q 2556 2988 2175 2988 
Q 1775 2988 1565 2697 
Q 1356 2406 1356 1850 
L 1356 331 
L 1856 331 
L 1856 0 
L 263 0 
z
" transform="scale(0.015625)"/>
        <path id="DejaVuSerif-6f" d="M 1925 219 
Q 2388 219 2623 584 
Q 2859 950 2859 1663 
Q 2859 2375 2623 2739 
Q 2388 3103 1925 3103 
Q 1463 3103 1227 2739 
Q 991 2375 991 1663 
Q 991 950 1228 584 
Q 1466 219 1925 219 
z
M 1925 -91 
Q 1200 -91 759 389 
Q 319 869 319 1663 
Q 319 2456 758 2934 
Q 1197 3413 1925 3413 
Q 2653 3413 3092 2934 
Q 3531 2456 3531 1663 
Q 3531 869 3092 389 
Q 2653 -91 1925 -91 
z
" transform="scale(0.015625)"/>
        <path id="DejaVuSerif-64" d="M 3359 331 
L 3909 331 
L 3909 0 
L 2784 0 
L 2784 519 
Q 2616 206 2355 57 
Q 2094 -91 1709 -91 
Q 1097 -91 708 395 
Q 319 881 319 1663 
Q 319 2444 706 2928 
Q 1094 3413 1709 3413 
Q 2094 3413 2355 3264 
Q 2616 3116 2784 2803 
L 2784 4531 
L 2241 4531 
L 2241 4863 
L 3359 4863 
L 3359 331 
z
M 2784 1497 
L 2784 1825 
Q 2784 2422 2554 2737 
Q 2325 3053 1888 3053 
Q 1444 3053 1217 2703 
Q 991 2353 991 1663 
Q 991 975 1217 622 
Q 1444 269 1888 269 
Q 2325 269 2554 583 
Q 2784 897 2784 1497 
z
" transform="scale(0.015625)"/>
       </defs>
       <use xlink:href="#DejaVuSerif-67"/>
       <use xlink:href="#DejaVuSerif-72" transform="translate(64.013672 0)"/>
       <use xlink:href="#DejaVuSerif-61" transform="translate(111.816406 0)"/>
       <use xlink:href="#DejaVuSerif-70" transform="translate(171.435547 0)"/>
       <use xlink:href="#DejaVuSerif-68" transform="translate(235.449219 0)"/>
       <use xlink:href="#DejaVuSerif-20" transform="translate(299.853516 0)"/>
       <use xlink:href="#DejaVuSerif-67" transform="translate(331.640625 0)"/>
       <use xlink:href="#DejaVuSerif-65" transform="translate(395.654297 0)"/>
       <use xlink:href="#DejaVuSerif-6f" transform="translate(454.833984 0)"/>
       <use xlink:href="#DejaVuSerif-64" transform="translate(515.039062 0)"/>
       <use xlink:href="#DejaVuSerif-65" transform="translate(579.052734 0)"/>
       <use xlink:href="#DejaVuSerif-73" transform="translate(638.232422 0)"/>
       <use xlink:href="#DejaVuSerif-69" transform="translate(689.550781 0)"/>
       <use xlink:href="#DejaVuSerif-63" transform="translate(721.533203 0)"/>
      </g>
     </g>
    </g>
    <g id="xtick_6">
     <g id="line2d_6">
      <g>
       <use xlink:href="#m94e09ed36c" x="289.979307" y="183.518437" style="stroke: #000000; stroke-width: 0.8"/>
      </g>
     </g>
     <g id="text_6">
      <!-- mahalanobis -->
      <g transform="translate(243.848932 219.998301) rotate(-28) scale(0.08 -0.08)">
       <use xlink:href="#DejaVuSerif-6d"/>
       <use xlink:href="#DejaVuSerif-61" transform="translate(94.824219 0)"/>
       <use xlink:href="#DejaVuSerif-68" transform="translate(154.443359 0)"/>
       <use xlink:href="#DejaVuSerif-61" transform="translate(218.847656 0)"/>
       <use xlink:href="#DejaVuSerif-6c" transform="translate(278.466797 0)"/>
       <use xlink:href="#DejaVuSerif-61" transform="translate(310.449219 0)"/>
       <use xlink:href="#DejaVuSerif-6e" transform="translate(370.068359 0)"/>
       <use xlink:href="#DejaVuSerif-6f" transform="translate(434.472656 0)"/>
       <use xlink:href="#DejaVuSerif-62" transform="translate(494.677734 0)"/>
       <use xlink:href="#DejaVuSerif-69" transform="translate(558.691406 0)"/>
       <use xlink:href="#DejaVuSerif-73" transform="translate(590.673828 0)"/>
      </g>
     </g>
    </g>
    <g id="xtick_7">
     <g id="line2d_7">
      <g>
       <use xlink:href="#m94e09ed36c" x="333.123637" y="183.518437" style="stroke: #000000; stroke-width: 0.8"/>
      </g>
     </g>
     <g id="text_7">
      <!-- class mahalanobis -->
      <g transform="translate(267.07286 230.590167) rotate(-28) scale(0.08 -0.08)">
       <use xlink:href="#DejaVuSerif-63"/>
       <use xlink:href="#DejaVuSerif-6c" transform="translate(56.005859 0)"/>
       <use xlink:href="#DejaVuSerif-61" transform="translate(87.988281 0)"/>
       <use xlink:href="#DejaVuSerif-73" transform="translate(147.607422 0)"/>
       <use xlink:href="#DejaVuSerif-73" transform="translate(198.925781 0)"/>
       <use xlink:href="#DejaVuSerif-20" transform="translate(250.244141 0)"/>
       <use xlink:href="#DejaVuSerif-6d" transform="translate(282.03125 0)"/>
       <use xlink:href="#DejaVuSerif-61" transform="translate(376.855469 0)"/>
       <use xlink:href="#DejaVuSerif-68" transform="translate(436.474609 0)"/>
       <use xlink:href="#DejaVuSerif-61" transform="translate(500.878906 0)"/>
       <use xlink:href="#DejaVuSerif-6c" transform="translate(560.498047 0)"/>
       <use xlink:href="#DejaVuSerif-61" transform="translate(592.480469 0)"/>
       <use xlink:href="#DejaVuSerif-6e" transform="translate(652.099609 0)"/>
       <use xlink:href="#DejaVuSerif-6f" transform="translate(716.503906 0)"/>
       <use xlink:href="#DejaVuSerif-62" transform="translate(776.708984 0)"/>
       <use xlink:href="#DejaVuSerif-69" transform="translate(840.722656 0)"/>
       <use xlink:href="#DejaVuSerif-73" transform="translate(872.705078 0)"/>
      </g>
     </g>
    </g>
    <g id="xtick_8">
     <g id="line2d_8">
      <g>
       <use xlink:href="#m94e09ed36c" x="376.267967" y="183.518437" style="stroke: #000000; stroke-width: 0.8"/>
      </g>
     </g>
     <g id="text_8">
      <!-- centroid -->
      <g transform="translate(345.552753 211.801915) rotate(-28) scale(0.08 -0.08)">
       <use xlink:href="#DejaVuSerif-63"/>
       <use xlink:href="#DejaVuSerif-65" transform="translate(56.005859 0)"/>
       <use xlink:href="#DejaVuSerif-6e" transform="translate(115.185547 0)"/>
       <use xlink:href="#DejaVuSerif-74" transform="translate(179.589844 0)"/>
       <use xlink:href="#DejaVuSerif-72" transform="translate(219.775391 0)"/>
       <use xlink:href="#DejaVuSerif-6f" transform="translate(267.578125 0)"/>
       <use xlink:href="#DejaVuSerif-69" transform="translate(327.783203 0)"/>
       <use xlink:href="#DejaVuSerif-64" transform="translate(359.765625 0)"/>
      </g>
     </g>
    </g>
   </g>
   <g id="matplotlib.axis_2">
    <g id="ytick_1">
     <g id="line2d_9">
      <path d="M 41.122812 183.518437 
L 409.402812 183.518437 
" clip-path="url(#pf257010cdc)" style="fill: none; stroke: #d9d9d9; stroke-width: 0.6; stroke-linecap: square"/>
     </g>
     <g id="line2d_10">
      <defs>
       <path id="m9bb63d0a39" d="M 0 0 
L -3.5 0 
" style="stroke: #000000; stroke-width: 0.8"/>
      </defs>
      <g>
       <use xlink:href="#m9bb63d0a39" x="41.122812" y="183.518437" style="stroke: #000000; stroke-width: 0.8"/>
      </g>
     </g>
     <g id="text_9">
      <!-- 0.50 -->
      <g transform="translate(16.310312 186.557812) scale(0.08 -0.08)">
       <defs>
        <path id="DejaVuSerif-2e" d="M 603 325 
Q 603 500 722 622 
Q 841 744 1019 744 
Q 1191 744 1312 622 
Q 1434 500 1434 325 
Q 1434 153 1312 31 
Q 1191 -91 1019 -91 
Q 841 -91 722 29 
Q 603 150 603 325 
z
" transform="scale(0.015625)"/>
       </defs>
       <use xlink:href="#DejaVuSerif-30"/>
       <use xlink:href="#DejaVuSerif-2e" transform="translate(63.623047 0)"/>
       <use xlink:href="#DejaVuSerif-35" transform="translate(95.410156 0)"/>
       <use xlink:href="#DejaVuSerif-30" transform="translate(159.033203 0)"/>
      </g>
     </g>
    </g>
    <g id="ytick_2">
     <g id="line2d_11">
      <path d="M 41.122812 163.718437 
L 409.402812 163.718437 
" clip-path="url(#pf257010cdc)" style="fill: none; stroke: #d9d9d9; stroke-width: 0.6; stroke-linecap: square"/>
     </g>
     <g id="line2d_12">
      <g>
       <use xlink:href="#m9bb63d0a39" x="41.122812" y="163.718437" style="stroke: #000000; stroke-width: 0.8"/>
      </g>
     </g>
     <g id="text_10">
      <!-- 0.55 -->
      <g transform="translate(16.310312 166.757812) scale(0.08 -0.08)">
       <use xlink:href="#DejaVuSerif-30"/>
       <use xlink:href="#DejaVuSerif-2e" transform="translate(63.623047 0)"/>
       <use xlink:href="#DejaVuSerif-35" transform="translate(95.410156 0)"/>
       <use xlink:href="#DejaVuSerif-35" transform="translate(159.033203 0)"/>
      </g>
     </g>
    </g>
    <g id="ytick_3">
     <g id="line2d_13">
      <path d="M 41.122812 143.918437 
L 409.402812 143.918437 
" clip-path="url(#pf257010cdc)" style="fill: none; stroke: #d9d9d9; stroke-width: 0.6; stroke-linecap: square"/>
     </g>
     <g id="line2d_14">
      <g>
       <use xlink:href="#m9bb63d0a39" x="41.122812" y="143.918437" style="stroke: #000000; stroke-width: 0.8"/>
      </g>
     </g>
     <g id="text_11">
      <!-- 0.60 -->
      <g transform="translate(16.310312 146.957812) scale(0.08 -0.08)">
       <defs>
        <path id="DejaVuSerif-36" d="M 2094 219 
Q 2534 219 2771 542 
Q 3009 866 3009 1472 
Q 3009 2078 2771 2401 
Q 2534 2725 2094 2725 
Q 1647 2725 1412 2412 
Q 1178 2100 1178 1509 
Q 1178 888 1415 553 
Q 1653 219 2094 219 
z
M 1075 2569 
Q 1288 2803 1556 2918 
Q 1825 3034 2163 3034 
Q 2859 3034 3264 2615 
Q 3669 2197 3669 1472 
Q 3669 763 3233 336 
Q 2797 -91 2069 -91 
Q 1278 -91 853 498 
Q 428 1088 428 2181 
Q 428 3406 931 4078 
Q 1434 4750 2350 4750 
Q 2597 4750 2869 4703 
Q 3141 4656 3425 4563 
L 3425 3794 
L 3072 3794 
Q 3034 4109 2831 4275 
Q 2628 4441 2284 4441 
Q 1678 4441 1381 3981 
Q 1084 3522 1075 2569 
z
" transform="scale(0.015625)"/>
       </defs>
       <use xlink:href="#DejaVuSerif-30"/>
       <use xlink:href="#DejaVuSerif-2e" transform="translate(63.623047 0)"/>
       <use xlink:href="#DejaVuSerif-36" transform="translate(95.410156 0)"/>
       <use xlink:href="#DejaVuSerif-30" transform="translate(159.033203 0)"/>
      </g>
     </g>
    </g>
    <g id="ytick_4">
     <g id="line2d_15">
      <path d="M 41.122812 124.118437 
L 409.402812 124.118437 
" clip-path="url(#pf257010cdc)" style="fill: none; stroke: #d9d9d9; stroke-width: 0.6; stroke-linecap: square"/>
     </g>
     <g id="line2d_16">
      <g>
       <use xlink:href="#m9bb63d0a39" x="41.122812" y="124.118437" style="stroke: #000000; stroke-width: 0.8"/>
      </g>
     </g>
     <g id="text_12">
      <!-- 0.65 -->
      <g transform="translate(16.310312 127.157812) scale(0.08 -0.08)">
       <use xlink:href="#DejaVuSerif-30"/>
       <use xlink:href="#DejaVuSerif-2e" transform="translate(63.623047 0)"/>
       <use xlink:href="#DejaVuSerif-36" transform="translate(95.410156 0)"/>
       <use xlink:href="#DejaVuSerif-35" transform="translate(159.033203 0)"/>
      </g>
     </g>
    </g>
    <g id="ytick_5">
     <g id="line2d_17">
      <path d="M 41.122812 104.318437 
L 409.402812 104.318437 
" clip-path="url(#pf257010cdc)" style="fill: none; stroke: #d9d9d9; stroke-width: 0.6; stroke-linecap: square"/>
     </g>
     <g id="line2d_18">
      <g>
       <use xlink:href="#m9bb63d0a39" x="41.122812" y="104.318437" style="stroke: #000000; stroke-width: 0.8"/>
      </g>
     </g>
     <g id="text_13">
      <!-- 0.70 -->
      <g transform="translate(16.310312 107.357812) scale(0.08 -0.08)">
       <defs>
        <path id="DejaVuSerif-37" d="M 3609 4347 
L 1784 0 
L 1319 0 
L 3059 4153 
L 903 4153 
L 903 3578 
L 538 3578 
L 538 4666 
L 3609 4666 
L 3609 4347 
z
" transform="scale(0.015625)"/>
       </defs>
       <use xlink:href="#DejaVuSerif-30"/>
       <use xlink:href="#DejaVuSerif-2e" transform="translate(63.623047 0)"/>
       <use xlink:href="#DejaVuSerif-37" transform="translate(95.410156 0)"/>
       <use xlink:href="#DejaVuSerif-30" transform="translate(159.033203 0)"/>
      </g>
     </g>
    </g>
    <g id="ytick_6">
     <g id="line2d_19">
      <path d="M 41.122812 84.518437 
L 409.402812 84.518437 
" clip-path="url(#pf257010cdc)" style="fill: none; stroke: #d9d9d9; stroke-width: 0.6; stroke-linecap: square"/>
     </g>
     <g id="line2d_20">
      <g>
       <use xlink:href="#m9bb63d0a39" x="41.122812" y="84.518437" style="stroke: #000000; stroke-width: 0.8"/>
      </g>
     </g>
     <g id="text_14">
      <!-- 0.75 -->
      <g transform="translate(16.310312 87.557812) scale(0.08 -0.08)">
       <use xlink:href="#DejaVuSerif-30"/>
       <use xlink:href="#DejaVuSerif-2e" transform="translate(63.623047 0)"/>
       <use xlink:href="#DejaVuSerif-37" transform="translate(95.410156 0)"/>
       <use xlink:href="#DejaVuSerif-35" transform="translate(159.033203 0)"/>
      </g>
     </g>
    </g>
    <g id="ytick_7">
     <g id="line2d_21">
      <path d="M 41.122812 64.718437 
L 409.402812 64.718437 
" clip-path="url(#pf257010cdc)" style="fill: none; stroke: #d9d9d9; stroke-width: 0.6; stroke-linecap: square"/>
     </g>
     <g id="line2d_22">
      <g>
       <use xlink:href="#m9bb63d0a39" x="41.122812" y="64.718437" style="stroke: #000000; stroke-width: 0.8"/>
      </g>
     </g>
     <g id="text_15">
      <!-- 0.80 -->
      <g transform="translate(16.310312 67.757812) scale(0.08 -0.08)">
       <defs>
        <path id="DejaVuSerif-38" d="M 2981 1275 
Q 2981 1775 2732 2051 
Q 2484 2328 2034 2328 
Q 1584 2328 1336 2051 
Q 1088 1775 1088 1275 
Q 1088 772 1336 495 
Q 1584 219 2034 219 
Q 2484 219 2732 495 
Q 2981 772 2981 1275 
z
M 2853 3541 
Q 2853 3966 2637 4203 
Q 2422 4441 2034 4441 
Q 1650 4441 1433 4203 
Q 1216 3966 1216 3541 
Q 1216 3113 1433 2875 
Q 1650 2638 2034 2638 
Q 2422 2638 2637 2875 
Q 2853 3113 2853 3541 
z
M 2516 2484 
Q 3047 2413 3344 2092 
Q 3641 1772 3641 1275 
Q 3641 619 3225 264 
Q 2809 -91 2034 -91 
Q 1263 -91 845 264 
Q 428 619 428 1275 
Q 428 1772 725 2092 
Q 1022 2413 1556 2484 
Q 1084 2569 832 2842 
Q 581 3116 581 3541 
Q 581 4103 968 4426 
Q 1356 4750 2034 4750 
Q 2713 4750 3100 4426 
Q 3488 4103 3488 3541 
Q 3488 3116 3236 2842 
Q 2984 2569 2516 2484 
z
" transform="scale(0.015625)"/>
       </defs>
       <use xlink:href="#DejaVuSerif-30"/>
       <use xlink:href="#DejaVuSerif-2e" transform="translate(63.623047 0)"/>
       <use xlink:href="#DejaVuSerif-38" transform="translate(95.410156 0)"/>
       <use xlink:href="#DejaVuSerif-30" transform="translate(159.033203 0)"/>
      </g>
     </g>
    </g>
    <g id="ytick_8">
     <g id="line2d_23">
      <path d="M 41.122812 44.918437 
L 409.402812 44.918437 
" clip-path="url(#pf257010cdc)" style="fill: none; stroke: #d9d9d9; stroke-width: 0.6; stroke-linecap: square"/>
     </g>
     <g id="line2d_24">
      <g>
       <use xlink:href="#m9bb63d0a39" x="41.122812" y="44.918437" style="stroke: #000000; stroke-width: 0.8"/>
      </g>
     </g>
     <g id="text_16">
      <!-- 0.85 -->
      <g transform="translate(16.310312 47.957812) scale(0.08 -0.08)">
       <use xlink:href="#DejaVuSerif-30"/>
       <use xlink:href="#DejaVuSerif-2e" transform="translate(63.623047 0)"/>
       <use xlink:href="#DejaVuSerif-38" transform="translate(95.410156 0)"/>
       <use xlink:href="#DejaVuSerif-35" transform="translate(159.033203 0)"/>
      </g>
     </g>
    </g>
    <g id="ytick_9">
     <g id="line2d_25">
      <path d="M 41.122812 25.118437 
L 409.402812 25.118437 
" clip-path="url(#pf257010cdc)" style="fill: none; stroke: #d9d9d9; stroke-width: 0.6; stroke-linecap: square"/>
     </g>
     <g id="line2d_26">
      <g>
       <use xlink:href="#m9bb63d0a39" x="41.122812" y="25.118437" style="stroke: #000000; stroke-width: 0.8"/>
      </g>
     </g>
     <g id="text_17">
      <!-- 0.90 -->
      <g transform="translate(16.310312 28.157812) scale(0.08 -0.08)">
       <defs>
        <path id="DejaVuSerif-39" d="M 2994 2091 
Q 2784 1856 2512 1740 
Q 2241 1625 1900 1625 
Q 1206 1625 804 2044 
Q 403 2463 403 3188 
Q 403 3897 839 4323 
Q 1275 4750 2003 4750 
Q 2794 4750 3217 4161 
Q 3641 3572 3641 2478 
Q 3641 1253 3137 581 
Q 2634 -91 1722 -91 
Q 1475 -91 1203 -44 
Q 931 3 647 97 
L 647 872 
L 997 872 
Q 1038 556 1241 387 
Q 1444 219 1784 219 
Q 2391 219 2687 676 
Q 2984 1134 2994 2091 
z
M 1978 4441 
Q 1534 4441 1298 4117 
Q 1063 3794 1063 3188 
Q 1063 2581 1298 2256 
Q 1534 1931 1978 1931 
Q 2422 1931 2658 2245 
Q 2894 2559 2894 3150 
Q 2894 3772 2656 4106 
Q 2419 4441 1978 4441 
z
" transform="scale(0.015625)"/>
       </defs>
       <use xlink:href="#DejaVuSerif-30"/>
       <use xlink:href="#DejaVuSerif-2e" transform="translate(63.623047 0)"/>
       <use xlink:href="#DejaVuSerif-39" transform="translate(95.410156 0)"/>
       <use xlink:href="#DejaVuSerif-30" transform="translate(159.033203 0)"/>
      </g>
     </g>
    </g>
    <g id="text_18">
     <!-- best AUROC -->
     <g transform="translate(10.438594 129.013594) rotate(-90) scale(0.09 -0.09)">
      <defs>
       <path id="DejaVuSerif-41" d="M 1281 1691 
L 2994 1691 
L 2138 3909 
L 1281 1691 
z
M -38 0 
L -38 331 
L 372 331 
L 2034 4666 
L 2559 4666 
L 4225 331 
L 4684 331 
L 4684 0 
L 2988 0 
L 2988 331 
L 3506 331 
L 3116 1356 
L 1153 1356 
L 763 331 
L 1275 331 
L 1275 0 
L -38 0 
z
" transform="scale(0.015625)"/>
       <path id="DejaVuSerif-55" d="M 897 4331 
L 300 4331 
L 300 4666 
L 2125 4666 
L 2125 4331 
L 1528 4331 
L 1528 1919 
Q 1528 1025 1820 672 
Q 2113 319 2828 319 
Q 3544 319 3836 672 
Q 4128 1025 4128 1919 
L 4128 4331 
L 3531 4331 
L 3531 4666 
L 5106 4666 
L 5106 4331 
L 4513 4331 
L 4513 1856 
Q 4513 791 4103 350 
Q 3694 -91 2713 -91 
Q 1731 -91 1314 353 
Q 897 797 897 1856 
L 897 4331 
z
" transform="scale(0.015625)"/>
       <path id="DejaVuSerif-52" d="M 3066 2316 
Q 3284 2256 3442 2114 
Q 3600 1972 3725 1716 
L 4403 331 
L 4972 331 
L 4972 0 
L 3872 0 
L 3144 1484 
Q 2934 1916 2759 2042 
Q 2584 2169 2278 2169 
L 1581 2169 
L 1581 331 
L 2241 331 
L 2241 0 
L 353 0 
L 353 331 
L 947 331 
L 947 4331 
L 353 4331 
L 353 4666 
L 2719 4666 
Q 3400 4666 3770 4341 
Q 4141 4016 4141 3419 
Q 4141 2938 3870 2661 
Q 3600 2384 3066 2316 
z
M 1581 2503 
L 2503 2503 
Q 2975 2503 3200 2726 
Q 3425 2950 3425 3419 
Q 3425 3888 3200 4109 
Q 2975 4331 2503 4331 
L 1581 4331 
L 1581 2503 
z
" transform="scale(0.015625)"/>
       <path id="DejaVuSerif-4f" d="M 2625 244 
Q 3391 244 3781 770 
Q 4172 1297 4172 2328 
Q 4172 3363 3781 3889 
Q 3391 4416 2625 4416 
Q 1856 4416 1465 3889 
Q 1075 3363 1075 2328 
Q 1075 1297 1465 770 
Q 1856 244 2625 244 
z
M 2625 -91 
Q 2150 -91 1751 65 
Q 1353 222 1050 525 
Q 700 875 529 1319 
Q 359 1763 359 2328 
Q 359 2894 529 3339 
Q 700 3784 1050 4134 
Q 1356 4441 1750 4595 
Q 2144 4750 2625 4750 
Q 3641 4750 4266 4084 
Q 4891 3419 4891 2328 
Q 4891 1769 4719 1320 
Q 4547 872 4197 525 
Q 3891 219 3497 64 
Q 3103 -91 2625 -91 
z
" transform="scale(0.015625)"/>
       <path id="DejaVuSerif-43" d="M 4513 1234 
Q 4306 581 3820 245 
Q 3334 -91 2591 -91 
Q 2134 -91 1743 65 
Q 1353 222 1050 525 
Q 700 875 529 1320 
Q 359 1766 359 2328 
Q 359 3416 987 4083 
Q 1616 4750 2644 4750 
Q 3025 4750 3456 4650 
Q 3888 4550 4384 4347 
L 4384 3272 
L 4031 3272 
Q 3916 3859 3567 4137 
Q 3219 4416 2591 4416 
Q 1844 4416 1459 3886 
Q 1075 3356 1075 2328 
Q 1075 1303 1459 773 
Q 1844 244 2591 244 
Q 3113 244 3450 492 
Q 3788 741 3938 1234 
L 4513 1234 
z
" transform="scale(0.015625)"/>
      </defs>
      <use xlink:href="#DejaVuSerif-62"/>
      <use xlink:href="#DejaVuSerif-65" transform="translate(64.013672 0)"/>
      <use xlink:href="#DejaVuSerif-73" transform="translate(123.193359 0)"/>
      <use xlink:href="#DejaVuSerif-74" transform="translate(174.511719 0)"/>
      <use xlink:href="#DejaVuSerif-20" transform="translate(214.697266 0)"/>
      <use xlink:href="#DejaVuSerif-41" transform="translate(246.484375 0)"/>
      <use xlink:href="#DejaVuSerif-55" transform="translate(318.701172 0)"/>
      <use xlink:href="#DejaVuSerif-52" transform="translate(402.978516 0)"/>
      <use xlink:href="#DejaVuSerif-4f" transform="translate(478.271484 0)"/>
      <use xlink:href="#DejaVuSerif-43" transform="translate(560.253906 0)"/>
     </g>
    </g>
   </g>
   <g id="patch_3">
    <path d="M 41.122812 183.518437 
L 41.122812 17.198437 
" style="fill: none; stroke: #000000; stroke-width: 0.8; stroke-linejoin: miter; stroke-linecap: square"/>
   </g>
   <g id="patch_4">
    <path d="M 41.122812 183.518437 
L 409.402812 183.518437 
" style="fill: none; stroke: #000000; stroke-width: 0.8; stroke-linejoin: miter; stroke-linecap: square"/>
   </g>
   <g id="patch_5">
    <path d="M 57.862812 381.518438 
L 74.257658 381.518438 
L 74.257658 33.394837 
L 57.862812 33.394837 
z
" clip-path="url(#pf257010cdc)" style="fill: #2166ac"/>
   </g>
   <g id="patch_6">
    <path d="M 101.007142 381.518438 
L 117.401988 381.518438 
L 117.401988 36.483637 
L 101.007142 36.483637 
z
" clip-path="url(#pf257010cdc)" style="fill: #2166ac"/>
   </g>
   <g id="patch_7">
    <path d="M 144.151472 381.518438 
L 160.546318 381.518438 
L 160.546318 41.552437 
L 144.151472 41.552437 
z
" clip-path="url(#pf257010cdc)" style="fill: #2166ac"/>
   </g>
   <g id="patch_8">
    <path d="M 187.295802 381.518438 
L 203.690648 381.518438 
L 203.690648 61.827637 
L 187.295802 61.827637 
z
" clip-path="url(#pf257010cdc)" style="fill: #2166ac"/>
   </g>
   <g id="patch_9">
    <path d="M 230.440132 381.518438 
L 246.834977 381.518438 
L 246.834977 94.656037 
L 230.440132 94.656037 
z
" clip-path="url(#pf257010cdc)" style="fill: #2166ac"/>
   </g>
   <g id="patch_10">
    <path d="M 273.584462 381.518438 
L 289.979307 381.518438 
L 289.979307 96.675637 
L 273.584462 96.675637 
z
" clip-path="url(#pf257010cdc)" style="fill: #2166ac"/>
   </g>
   <g id="patch_11">
    <path d="M 316.728792 381.518438 
L 333.123637 381.518438 
L 333.123637 96.873637 
L 316.728792 96.873637 
z
" clip-path="url(#pf257010cdc)" style="fill: #2166ac"/>
   </g>
   <g id="patch_12">
    <path d="M 359.873122 381.518438 
L 376.267967 381.518438 
L 376.267967 97.546837 
L 359.873122 97.546837 
z
" clip-path="url(#pf257010cdc)" style="fill: #2166ac"/>
   </g>
   <g id="patch_13">
    <path d="M 74.257658 381.518438 
L 90.652503 381.518438 
L 90.652503 31.256437 
L 74.257658 31.256437 
z
" clip-path="url(#pf257010cdc)" style="fill: #d6604d"/>
   </g>
   <g id="patch_14">
    <path d="M 117.401988 381.518438 
L 133.796833 381.518438 
L 133.796833 38.067637 
L 117.401988 38.067637 
z
" clip-path="url(#pf257010cdc)" style="fill: #d6604d"/>
   </g>
   <g id="patch_15">
    <path d="M 160.546318 381.518438 
L 176.941163 381.518438 
L 176.941163 36.958837 
L 160.546318 36.958837 
z
" clip-path="url(#pf257010cdc)" style="fill: #d6604d"/>
   </g>
   <g id="patch_16">
    <path d="M 203.690648 381.518438 
L 220.085493 381.518438 
L 220.085493 58.144837 
L 203.690648 58.144837 
z
" clip-path="url(#pf257010cdc)" style="fill: #d6604d"/>
   </g>
   <g id="patch_17">
    <path d="M 246.834977 381.518438 
L 263.229823 381.518438 
L 263.229823 91.646437 
L 246.834977 91.646437 
z
" clip-path="url(#pf257010cdc)" style="fill: #d6604d"/>
   </g>
   <g id="patch_18">
    <path d="M 289.979307 381.518438 
L 306.374153 381.518438 
L 306.374153 93.507637 
L 289.979307 93.507637 
z
" clip-path="url(#pf257010cdc)" style="fill: #d6604d"/>
   </g>
   <g id="patch_19">
    <path d="M 333.123637 381.518438 
L 349.518483 381.518438 
L 349.518483 93.626437 
L 333.123637 93.626437 
z
" clip-path="url(#pf257010cdc)" style="fill: #d6604d"/>
   </g>
   <g id="patch_20">
    <path d="M 376.267967 381.518438 
L 392.662812 381.518438 
L 392.662812 94.062037 
L 376.267967 94.062037 
z
" clip-path="url(#pf257010cdc)" style="fill: #d6604d"/>
   </g>
   <g id="text_19">
    <!-- Per-turn acceptance detection (pair-grouped CV) -->
    <g transform="translate(41.122812 11.198437) scale(0.1 -0.1)">
     <defs>
      <path id="DejaVuSerif-50" d="M 1581 2375 
L 2406 2375 
Q 2872 2375 3115 2626 
Q 3359 2878 3359 3353 
Q 3359 3831 3115 4081 
Q 2872 4331 2406 4331 
L 1581 4331 
L 1581 2375 
z
M 353 0 
L 353 331 
L 947 331 
L 947 4331 
L 353 4331 
L 353 4666 
L 2559 4666 
Q 3259 4666 3668 4311 
Q 4078 3956 4078 3353 
Q 4078 2753 3668 2397 
Q 3259 2041 2559 2041 
L 1581 2041 
L 1581 331 
L 2303 331 
L 2303 0 
L 353 0 
z
" transform="scale(0.015625)"/>
      <path id="DejaVuSerif-2d" d="M 281 1959 
L 1881 1959 
L 1881 1472 
L 281 1472 
L 281 1959 
z
" transform="scale(0.015625)"/>
      <path id="DejaVuSerif-28" d="M 2041 -997 
Q 1281 -656 893 83 
Q 506 822 506 1931 
Q 506 3044 893 3783 
Q 1281 4522 2041 4863 
L 2041 4556 
Q 1559 4225 1350 3623 
Q 1141 3022 1141 1931 
Q 1141 844 1350 242 
Q 1559 -359 2041 -691 
L 2041 -997 
z
" transform="scale(0.015625)"/>
      <path id="DejaVuSerif-56" d="M 1119 4331 
L 2497 750 
L 3872 4331 
L 3347 4331 
L 3347 4666 
L 4716 4666 
L 4716 4331 
L 4263 4331 
L 2597 0 
L 2059 0 
L 403 4331 
L -63 4331 
L -63 4666 
L 1638 4666 
L 1638 4331 
L 1119 4331 
z
" transform="scale(0.015625)"/>
      <path id="DejaVuSerif-29" d="M 453 -997 
L 453 -691 
Q 934 -359 1145 242 
Q 1356 844 1356 1931 
Q 1356 3022 1145 3623 
Q 934 4225 453 4556 
L 453 4863 
Q 1216 4522 1603 3783 
Q 1991 3044 1991 1931 
Q 1991 822 1603 83 
Q 1216 -656 453 -997 
z
" transform="scale(0.015625)"/>
     </defs>
     <use xlink:href="#DejaVuSerif-50"/>
     <use xlink:href="#DejaVuSerif-65" transform="translate(62.785156 0)"/>
     <use xlink:href="#DejaVuSerif-72" transform="translate(121.964844 0)"/>
     <use xlink:href="#DejaVuSerif-2d" transform="translate(169.767578 0)"/>
     <use xlink:href="#DejaVuSerif-74" transform="translate(203.556641 0)"/>
     <use xlink:href="#DejaVuSerif-75" transform="translate(243.742188 0)"/>
     <use xlink:href="#DejaVuSerif-72" transform="translate(308.146484 0)"/>
     <use xlink:href="#DejaVuSerif-6e" transform="translate(355.949219 0)"/>
     <use xlink:href="#DejaVuSerif-20" transform="translate(420.353516 0)"/>
     <use xlink:href="#DejaVuSerif-61" transform="translate(452.140625 0)"/>
     <use xlink:href="#DejaVuSerif-63" transform="translate(511.759766 0)"/>
     <use xlink:href="#DejaVuSerif-63" transform="translate(567.765625 0)"/>
     <use xlink:href="#DejaVuSerif-65" transform="translate(623.771484 0)"/>
     <use xlink:href="#DejaVuSerif-70" transform="translate(682.951172 0)"/>
     <use xlink:href="#DejaVuSerif-74" transform="translate(746.964844 0)"/>
     <use xlink:href="#DejaVuSerif-61" transform="translate(787.150391 0)"/>
     <use xlink:href="#DejaVuSerif-6e" transform="translate(846.769531 0)"/>
     <use xlink:href="#DejaVuSerif-63" transform="translate(911.173828 0)"/>
     <use xlink:href="#DejaVuSerif-65" transform="translate(967.179688 0)"/>
     <use xlink:href="#DejaVuSerif-20" transform="translate(1026.359375 0)"/>
     <use xlink:href="#DejaVuSerif-64" transform="translate(1058.146484 0)"/>
     <use xlink:href="#DejaVuSerif-65" transform="translate(1122.160156 0)"/>
     <use xlink:href="#DejaVuSerif-74" transform="translate(1181.339844 0)"/>
     <use xlink:href="#DejaVuSerif-65" transform="translate(1221.525391 0)"/>
     <use xlink:href="#DejaVuSerif-63" transform="translate(1280.705078 0)"/>
     <use xlink:href="#DejaVuSerif-74" transform="translate(1336.710938 0)"/>
     <use xlink:href="#DejaVuSerif-69" transform="translate(1376.896484 0)"/>
     <use xlink:href="#DejaVuSerif-6f" transform="translate(1408.878906 0)"/>
     <use xlink:href="#DejaVuSerif-6e" transform="translate(1469.083984 0)"/>
     <use xlink:href="#DejaVuSerif-20" transform="translate(1533.488281 0)"/>
     <use xlink:href="#DejaVuSerif-28" transform="translate(1565.275391 0)"/>
     <use xlink:href="#DejaVuSerif-70" transform="translate(1604.289062 0)"/>
     <use xlink:href="#DejaVuSerif-61" transform="translate(1668.302734 0)"/>
     <use xlink:href="#DejaVuSerif-69" transform="translate(1727.921875 0)"/>
     <use xlink:href="#DejaVuSerif-72" transform="translate(1759.904297 0)"/>
     <use xlink:href="#DejaVuSerif-2d" transform="translate(1807.707031 0)"/>
     <use xlink:href="#DejaVuSerif-67" transform="translate(1841.496094 0)"/>
     <use xlink:href="#DejaVuSerif-72" transform="translate(1905.509766 0)"/>
     <use xlink:href="#DejaVuSerif-6f" transform="translate(1953.3125 0)"/>
     <use xlink:href="#DejaVuSerif-75" transform="translate(2013.517578 0)"/>
     <use xlink:href="#DejaVuSerif-70" transform="translate(2077.921875 0)"/>
     <use xlink:href="#DejaVuSerif-65" transform="translate(2141.935547 0)"/>
     <use xlink:href="#DejaVuSerif-64" transform="translate(2201.115234 0)"/>
     <use xlink:href="#DejaVuSerif-20" transform="translate(2265.128906 0)"/>
     <use xlink:href="#DejaVuSerif-43" transform="translate(2296.916016 0)"/>
     <use xlink:href="#DejaVuSerif-56" transform="translate(2373.429688 0)"/>
     <use xlink:href="#DejaVuSerif-29" transform="translate(2445.646484 0)"/>
    </g>
   </g>
   <g id="legend_1">
    <g id="patch_21">
     <path d="M 235.680313 30.477187 
L 251.680313 30.477187 
L 251.680313 24.877187 
L 235.680313 24.877187 
z
" style="fill: #2166ac"/>
    </g>
    <g id="text_20">
     <!-- Opus 4.8 -->
     <g transform="translate(258.080312 30.477187) scale(0.08 -0.08)">
      <defs>
       <path id="DejaVuSerif-34" d="M 2234 1581 
L 2234 4063 
L 641 1581 
L 2234 1581 
z
M 3609 0 
L 1484 0 
L 1484 331 
L 2234 331 
L 2234 1247 
L 197 1247 
L 197 1588 
L 2241 4750 
L 2859 4750 
L 2859 1581 
L 3750 1581 
L 3750 1247 
L 2859 1247 
L 2859 331 
L 3609 331 
L 3609 0 
z
" transform="scale(0.015625)"/>
      </defs>
      <use xlink:href="#DejaVuSerif-4f"/>
      <use xlink:href="#DejaVuSerif-70" transform="translate(81.982422 0)"/>
      <use xlink:href="#DejaVuSerif-75" transform="translate(145.996094 0)"/>
      <use xlink:href="#DejaVuSerif-73" transform="translate(210.400391 0)"/>
      <use xlink:href="#DejaVuSerif-20" transform="translate(261.71875 0)"/>
      <use xlink:href="#DejaVuSerif-34" transform="translate(293.505859 0)"/>
      <use xlink:href="#DejaVuSerif-2e" transform="translate(357.128906 0)"/>
      <use xlink:href="#DejaVuSerif-38" transform="translate(388.916016 0)"/>
     </g>
    </g>
    <g id="patch_22">
     <path d="M 310.282812 30.477187 
L 326.282812 30.477187 
L 326.282812 24.877187 
L 310.282812 24.877187 
z
" style="fill: #d6604d"/>
    </g>
    <g id="text_21">
     <!-- DeepSeek v4 Pro -->
     <g transform="translate(332.682812 30.477187) scale(0.08 -0.08)">
      <defs>
       <path id="DejaVuSerif-44" d="M 1581 331 
L 2163 331 
Q 3072 331 3558 850 
Q 4044 1369 4044 2338 
Q 4044 3306 3559 3818 
Q 3075 4331 2163 4331 
L 1581 4331 
L 1581 331 
z
M 353 0 
L 353 331 
L 947 331 
L 947 4331 
L 353 4331 
L 353 4666 
L 2209 4666 
Q 3416 4666 4089 4050 
Q 4763 3434 4763 2338 
Q 4763 1238 4088 619 
Q 3413 0 2209 0 
L 353 0 
z
" transform="scale(0.015625)"/>
       <path id="DejaVuSerif-53" d="M 594 225 
L 594 1288 
L 953 1284 
Q 969 753 1261 498 
Q 1553 244 2150 244 
Q 2706 244 2998 464 
Q 3291 684 3291 1106 
Q 3291 1444 3114 1625 
Q 2938 1806 2369 1978 
L 1753 2163 
Q 1084 2366 811 2669 
Q 538 2972 538 3500 
Q 538 4094 959 4422 
Q 1381 4750 2144 4750 
Q 2469 4750 2856 4679 
Q 3244 4609 3681 4475 
L 3681 3481 
L 3328 3481 
Q 3275 3975 2998 4195 
Q 2722 4416 2156 4416 
Q 1663 4416 1405 4214 
Q 1147 4013 1147 3628 
Q 1147 3294 1340 3103 
Q 1534 2913 2163 2725 
L 2741 2553 
Q 3375 2363 3645 2067 
Q 3916 1772 3916 1275 
Q 3916 597 3481 253 
Q 3047 -91 2188 -91 
Q 1803 -91 1404 -12 
Q 1006 66 594 225 
z
" transform="scale(0.015625)"/>
       <path id="DejaVuSerif-6b" d="M 1831 0 
L 219 0 
L 219 331 
L 738 331 
L 738 4531 
L 184 4531 
L 184 4863 
L 1313 4863 
L 1313 1697 
L 2713 2988 
L 2234 2988 
L 2234 3322 
L 3738 3322 
L 3738 2988 
L 3169 2988 
L 2181 2075 
L 3444 331 
L 3922 331 
L 3922 0 
L 2284 0 
L 2284 331 
L 2759 331 
L 1766 1697 
L 1313 1275 
L 1313 331 
L 1831 331 
L 1831 0 
z
" transform="scale(0.015625)"/>
       <path id="DejaVuSerif-76" d="M 1581 0 
L 359 2988 
L -19 2988 
L -19 3322 
L 1509 3322 
L 1509 2988 
L 978 2988 
L 1913 703 
L 2847 2988 
L 2350 2988 
L 2350 3322 
L 3597 3322 
L 3597 2988 
L 3225 2988 
L 2003 0 
L 1581 0 
z
" transform="scale(0.015625)"/>
      </defs>
      <use xlink:href="#DejaVuSerif-44"/>
      <use xlink:href="#DejaVuSerif-65" transform="translate(80.175781 0)"/>
      <use xlink:href="#DejaVuSerif-65" transform="translate(139.355469 0)"/>
      <use xlink:href="#DejaVuSerif-70" transform="translate(198.535156 0)"/>
      <use xlink:href="#DejaVuSerif-53" transform="translate(262.548828 0)"/>
      <use xlink:href="#DejaVuSerif-65" transform="translate(331.054688 0)"/>
      <use xlink:href="#DejaVuSerif-65" transform="translate(390.234375 0)"/>
      <use xlink:href="#DejaVuSerif-6b" transform="translate(449.414062 0)"/>
      <use xlink:href="#DejaVuSerif-20" transform="translate(510.009766 0)"/>
      <use xlink:href="#DejaVuSerif-76" transform="translate(541.796875 0)"/>
      <use xlink:href="#DejaVuSerif-34" transform="translate(598.291016 0)"/>
      <use xlink:href="#DejaVuSerif-20" transform="translate(661.914062 0)"/>
      <use xlink:href="#DejaVuSerif-50" transform="translate(693.701172 0)"/>
      <use xlink:href="#DejaVuSerif-72" transform="translate(760.986328 0)"/>
      <use xlink:href="#DejaVuSerif-6f" transform="translate(808.789062 0)"/>
     </g>
    </g>
   </g>
  </g>
 </g>
 <defs>
  <clipPath id="pf257010cdc">
   <rect x="41.122812" y="17.198437" width="368.28" height="166.32"/>
  </clipPath>
 </defs>
</svg>
