<?xml version="1.0" encoding="utf-8" standalone="no"?>
<!DOCTYPE svg PUBLIC "-//W3C//DTD SVG 1.1//EN"
  "http://www.w3.org/Graphics/SVG/1.1/DTD/svg11.dtd">
<svg xmlns:xlink="http://www.w3.org/1999/xlink" width="512.964297pt" height="209.155219pt" viewBox="0 0 512.964297 209.155219" xmlns="http://www.w3.org/2000/svg" version="1.1">
 <metadata>
  <rdf:RDF xmlns:dc="http://purl.org/dc/elements/1.1/" xmlns:cc="http://creativecommons.org/ns#" xmlns:rdf="http://www.w3.org/1999/02/22-rdf-syntax-ns#">
   <cc:Work>
    <dc:type rdf:resource="http://purl.org/dc/dcmitype/StillImage"/>
    <dc:date>2026-06-27T13:21:24.857100</dc:date>
    <dc:format>image/svg+xml</dc:format>
    <dc:creator>
     <cc:Agent>
      <dc:title>Matplotlib v3.10.9, https://matplotlib.org/</dc:title>
     </cc:Agent>
    </dc:creator>
   </cc:Work>
  </rdf:RDF>
 </metadata>
 <defs>
  <style type="text/css">*{stroke-linejoin: round; stroke-linecap: butt}</style>
 </defs>
 <g id="figure_1">
  <g id="patch_1">
   <path d="M 0 209.155219
L 512.964297 209.155219
L 512.964297 0
L 0 0
z
" style="fill: #ffffff"/>
  </g>
  <g id="axes_1">
   <g id="patch_2">
    <path d="M 36.032813 177.974437
L 208.50554 177.974437
L 208.50554 17.198437
L 36.032813 17.198437
z
" style="fill: #ffffff"/>
   </g>
   <g id="matplotlib.axis_1">
    <g id="xtick_1">
     <g id="line2d_1">
      <path d="M 43.872482 177.974437
L 43.872482 17.198437
" clip-path="url(#p8a87132eb6)" style="fill: none; stroke: #d9d9d9; stroke-width: 0.6; stroke-linecap: square"/>
     </g>
     <g id="line2d_2">
      <defs>
       <path id="me44aef661c" d="M 0 0
L 0 3.5
" style="stroke: #000000; stroke-width: 0.8"/>
      </defs>
      <g>
       <use xlink:href="#me44aef661c" x="43.872482" y="177.974437" style="stroke: #000000; stroke-width: 0.8"/>
      </g>
     </g>
     <g id="text_1">
      <!-- 8 -->
      <g transform="translate(41.327482 191.053187) scale(0.08 -0.08)">
       <defs>
        <path id="DejaVuSerif-38" d="M 2981 1275
Q 2981 1775 2732 2051
Q 2484 2328 2034 2328
Q 1584 2328 1336 2051
Q 1088 1775 1088 1275
Q 1088 772 1336 495
Q 1584 219 2034 219
Q 2484 219 2732 495
Q 2981 772 2981 1275
z
M 2853 3541
Q 2853 3966 2637 4203
Q 2422 4441 2034 4441
Q 1650 4441 1433 4203
Q 1216 3966 1216 3541
Q 1216 3113 1433 2875
Q 1650 2638 2034 2638
Q 2422 2638 2637 2875
Q 2853 3113 2853 3541
z
M 2516 2484
Q 3047 2413 3344 2092
Q 3641 1772 3641 1275
Q 3641 619 3225 264
Q 2809 -91 2034 -91
Q 1263 -91 845 264
Q 428 619 428 1275
Q 428 1772 725 2092
Q 1022 2413 1556 2484
Q 1084 2569 832 2842
Q 581 3116 581 3541
Q 581 4103 968 4426
Q 1356 4750 2034 4750
Q 2713 4750 3100 4426
Q 3488 4103 3488 3541
Q 3488 3116 3236 2842
Q 2984 2569 2516 2484
z
" transform="scale(0.015625)"/>
       </defs>
       <use xlink:href="#DejaVuSerif-38"/>
      </g>
     </g>
    </g>
    <g id="xtick_2">
     <g id="line2d_3">
      <path d="M 122.269176 177.974437
L 122.269176 17.198437
" clip-path="url(#p8a87132eb6)" style="fill: none; stroke: #d9d9d9; stroke-width: 0.6; stroke-linecap: square"/>
     </g>
     <g id="line2d_4">
      <g>
       <use xlink:href="#me44aef661c" x="122.269176" y="177.974437" style="stroke: #000000; stroke-width: 0.8"/>
      </g>
     </g>
     <g id="text_2">
      <!-- 12 -->
      <g transform="translate(117.179176 191.053187) scale(0.08 -0.08)">
       <defs>
        <path id="DejaVuSerif-31" d="M 909 0
L 909 331
L 1722 331
L 1722 4213
L 781 3603
L 781 4013
L 1919 4750
L 2350 4750
L 2350 331
L 3163 331
L 3163 0
L 909 0
z
" transform="scale(0.015625)"/>
        <path id="DejaVuSerif-32" d="M 819 3553
L 469 3553
L 469 4384
Q 803 4563 1142 4656
Q 1481 4750 1806 4750
Q 2534 4750 2956 4397
Q 3378 4044 3378 3438
Q 3378 2753 2422 1800
Q 2347 1728 2309 1691
L 1131 513
L 3078 513
L 3078 1088
L 3444 1088
L 3444 0
L 434 0
L 434 341
L 1850 1753
Q 2319 2222 2519 2614
Q 2719 3006 2719 3438
Q 2719 3909 2473 4175
Q 2228 4441 1797 4441
Q 1350 4441 1106 4219
Q 863 3997 819 3553
z
" transform="scale(0.015625)"/>
       </defs>
       <use xlink:href="#DejaVuSerif-31"/>
       <use xlink:href="#DejaVuSerif-32" transform="translate(63.623047 0)"/>
      </g>
     </g>
    </g>
    <g id="xtick_3">
     <g id="line2d_5">
      <path d="M 200.66587 177.974437
L 200.66587 17.198437
" clip-path="url(#p8a87132eb6)" style="fill: none; stroke: #d9d9d9; stroke-width: 0.6; stroke-linecap: square"/>
     </g>
     <g id="line2d_6">
      <g>
       <use xlink:href="#me44aef661c" x="200.66587" y="177.974437" style="stroke: #000000; stroke-width: 0.8"/>
      </g>
     </g>
     <g id="text_3">
      <!-- 16 -->
      <g transform="translate(195.57587 191.053187) scale(0.08 -0.08)">
       <defs>
        <path id="DejaVuSerif-36" d="M 2094 219
Q 2534 219 2771 542
Q 3009 866 3009 1472
Q 3009 2078 2771 2401
Q 2534 2725 2094 2725
Q 1647 2725 1412 2412
Q 1178 2100 1178 1509
Q 1178 888 1415 553
Q 1653 219 2094 219
z
M 1075 2569
Q 1288 2803 1556 2918
Q 1825 3034 2163 3034
Q 2859 3034 3264 2615
Q 3669 2197 3669 1472
Q 3669 763 3233 336
Q 2797 -91 2069 -91
Q 1278 -91 853 498
Q 428 1088 428 2181
Q 428 3406 931 4078
Q 1434 4750 2350 4750
Q 2597 4750 2869 4703
Q 3141 4656 3425 4563
L 3425 3794
L 3072 3794
Q 3034 4109 2831 4275
Q 2628 4441 2284 4441
Q 1678 4441 1381 3981
Q 1084 3522 1075 2569
z
" transform="scale(0.015625)"/>
       </defs>
       <use xlink:href="#DejaVuSerif-31"/>
       <use xlink:href="#DejaVuSerif-36" transform="translate(63.623047 0)"/>
      </g>
     </g>
    </g>
    <g id="text_4">
     <!-- steering alpha -->
     <g transform="translate(89.440973 203.555531) scale(0.09 -0.09)">
      <defs>
       <path id="DejaVuSerif-73" d="M 359 184
L 359 959
L 691 959
Q 703 588 923 403
Q 1144 219 1575 219
Q 1963 219 2166 364
Q 2369 509 2369 788
Q 2369 1006 2220 1140
Q 2072 1275 1594 1428
L 1178 1569
Q 750 1706 558 1912
Q 366 2119 366 2438
Q 366 2894 700 3153
Q 1034 3413 1625 3413
Q 1888 3413 2178 3344
Q 2469 3275 2778 3144
L 2778 2419
L 2447 2419
Q 2434 2741 2221 2922
Q 2009 3103 1644 3103
Q 1281 3103 1095 2975
Q 909 2847 909 2591
Q 909 2381 1050 2254
Q 1191 2128 1613 1997
L 2069 1856
Q 2541 1709 2748 1489
Q 2956 1269 2956 922
Q 2956 450 2595 179
Q 2234 -91 1600 -91
Q 1278 -91 972 -22
Q 666 47 359 184
z
" transform="scale(0.015625)"/>
       <path id="DejaVuSerif-74" d="M 691 2988
L 184 2988
L 184 3322
L 691 3322
L 691 4353
L 1269 4353
L 1269 3322
L 2350 3322
L 2350 2988
L 1269 2988
L 1269 878
Q 1269 456 1350 337
Q 1431 219 1650 219
Q 1875 219 1978 351
Q 2081 484 2088 781
L 2522 781
Q 2497 328 2275 118
Q 2053 -91 1600 -91
Q 1103 -91 897 129
Q 691 350 691 878
L 691 2988
z
" transform="scale(0.015625)"/>
       <path id="DejaVuSerif-65" d="M 3469 1600
L 991 1600
L 991 1575
Q 991 903 1244 561
Q 1497 219 1991 219
Q 2369 219 2611 417
Q 2853 616 2950 1006
L 3413 1006
Q 3275 459 2904 184
Q 2534 -91 1931 -91
Q 1203 -91 761 389
Q 319 869 319 1663
Q 319 2450 753 2931
Q 1188 3413 1894 3413
Q 2647 3413 3050 2948
Q 3453 2484 3469 1600
z
M 2791 1931
Q 2772 2513 2545 2808
Q 2319 3103 1894 3103
Q 1497 3103 1269 2806
Q 1041 2509 991 1931
L 2791 1931
z
" transform="scale(0.015625)"/>
       <path id="DejaVuSerif-72" d="M 3059 3328
L 3059 2497
L 2728 2497
Q 2713 2744 2591 2866
Q 2469 2988 2234 2988
Q 1809 2988 1582 2694
Q 1356 2400 1356 1850
L 1356 331
L 2022 331
L 2022 0
L 263 0
L 263 331
L 781 331
L 781 2994
L 231 2994
L 231 3322
L 1356 3322
L 1356 2731
Q 1525 3078 1790 3245
Q 2056 3413 2438 3413
Q 2578 3413 2733 3391
Q 2888 3369 3059 3328
z
" transform="scale(0.015625)"/>
       <path id="DejaVuSerif-69" d="M 622 4353
Q 622 4497 726 4603
Q 831 4709 978 4709
Q 1122 4709 1226 4603
Q 1331 4497 1331 4353
Q 1331 4206 1228 4103
Q 1125 4000 978 4000
Q 831 4000 726 4103
Q 622 4206 622 4353
z
M 1356 331
L 1900 331
L 1900 0
L 231 0
L 231 331
L 781 331
L 781 2988
L 231 2988
L 231 3322
L 1356 3322
L 1356 331
z
" transform="scale(0.015625)"/>
       <path id="DejaVuSerif-6e" d="M 263 0
L 263 331
L 781 331
L 781 2988
L 231 2988
L 231 3322
L 1356 3322
L 1356 2731
Q 1516 3069 1770 3241
Q 2025 3413 2363 3413
Q 2913 3413 3172 3097
Q 3431 2781 3431 2113
L 3431 331
L 3944 331
L 3944 0
L 2356 0
L 2356 331
L 2853 331
L 2853 1931
Q 2853 2541 2703 2767
Q 2553 2994 2175 2994
Q 1775 2994 1565 2701
Q 1356 2409 1356 1850
L 1356 331
L 1856 331
L 1856 0
L 263 0
z
" transform="scale(0.015625)"/>
       <path id="DejaVuSerif-67" d="M 3359 2988
L 3359 72
Q 3359 -644 2965 -1033
Q 2572 -1422 1844 -1422
Q 1516 -1422 1216 -1362
Q 916 -1303 641 -1184
L 641 -488
L 941 -488
Q 997 -813 1206 -963
Q 1416 -1113 1806 -1113
Q 2313 -1113 2548 -827
Q 2784 -541 2784 72
L 2784 519
Q 2616 206 2355 57
Q 2094 -91 1709 -91
Q 1097 -91 708 395
Q 319 881 319 1663
Q 319 2444 706 2928
Q 1094 3413 1709 3413
Q 2094 3413 2355 3264
Q 2616 3116 2784 2803
L 2784 3322
L 3909 3322
L 3909 2988
L 3359 2988
z
M 2784 1825
Q 2784 2422 2554 2737
Q 2325 3053 1888 3053
Q 1444 3053 1217 2703
Q 991 2353 991 1663
Q 991 975 1217 622
Q 1444 269 1888 269
Q 2325 269 2554 583
Q 2784 897 2784 1497
L 2784 1825
z
" transform="scale(0.015625)"/>
       <path id="DejaVuSerif-20" transform="scale(0.015625)"/>
       <path id="DejaVuSerif-61" d="M 2547 1044
L 2547 1747
L 1806 1747
Q 1378 1747 1168 1562
Q 959 1378 959 997
Q 959 650 1171 447
Q 1384 244 1747 244
Q 2106 244 2326 466
Q 2547 688 2547 1044
z
M 3122 2075
L 3122 331
L 3634 331
L 3634 0
L 2547 0
L 2547 359
Q 2356 128 2106 18
Q 1856 -91 1522 -91
Q 969 -91 644 203
Q 319 497 319 997
Q 319 1513 691 1797
Q 1063 2081 1741 2081
L 2547 2081
L 2547 2309
Q 2547 2688 2317 2895
Q 2088 3103 1672 3103
Q 1328 3103 1125 2947
Q 922 2791 872 2484
L 575 2484
L 575 3156
Q 875 3284 1158 3348
Q 1441 3413 1709 3413
Q 2400 3413 2761 3070
Q 3122 2728 3122 2075
z
" transform="scale(0.015625)"/>
       <path id="DejaVuSerif-6c" d="M 1313 331
L 1856 331
L 1856 0
L 184 0
L 184 331
L 738 331
L 738 4531
L 184 4531
L 184 4863
L 1313 4863
L 1313 331
z
" transform="scale(0.015625)"/>
       <path id="DejaVuSerif-70" d="M 1313 1825
L 1313 1497
Q 1313 897 1542 583
Q 1772 269 2209 269
Q 2650 269 2876 622
Q 3103 975 3103 1663
Q 3103 2353 2876 2703
Q 2650 3053 2209 3053
Q 1772 3053 1542 2737
Q 1313 2422 1313 1825
z
M 738 2988
L 184 2988
L 184 3322
L 1313 3322
L 1313 2803
Q 1481 3116 1742 3264
Q 2003 3413 2388 3413
Q 3000 3413 3387 2928
Q 3775 2444 3775 1663
Q 3775 881 3387 395
Q 3000 -91 2388 -91
Q 2003 -91 1742 57
Q 1481 206 1313 519
L 1313 -997
L 1856 -997
L 1856 -1331
L 184 -1331
L 184 -997
L 738 -997
L 738 2988
z
" transform="scale(0.015625)"/>
       <path id="DejaVuSerif-68" d="M 263 0
L 263 331
L 781 331
L 781 4531
L 231 4531
L 231 4863
L 1356 4863
L 1356 2731
Q 1516 3069 1770 3241
Q 2025 3413 2363 3413
Q 2913 3413 3172 3097
Q 3431 2781 3431 2113
L 3431 331
L 3944 331
L 3944 0
L 2356 0
L 2356 331
L 2853 331
L 2853 1931
Q 2853 2541 2704 2764
Q 2556 2988 2175 2988
Q 1775 2988 1565 2697
Q 1356 2406 1356 1850
L 1356 331
L 1856 331
L 1856 0
L 263 0
z
" transform="scale(0.015625)"/>
      </defs>
      <use xlink:href="#DejaVuSerif-73"/>
      <use xlink:href="#DejaVuSerif-74" transform="translate(51.318359 0)"/>
      <use xlink:href="#DejaVuSerif-65" transform="translate(91.503906 0)"/>
      <use xlink:href="#DejaVuSerif-65" transform="translate(150.683594 0)"/>
      <use xlink:href="#DejaVuSerif-72" transform="translate(209.863281 0)"/>
      <use xlink:href="#DejaVuSerif-69" transform="translate(257.666016 0)"/>
      <use xlink:href="#DejaVuSerif-6e" transform="translate(289.648438 0)"/>
      <use xlink:href="#DejaVuSerif-67" transform="translate(354.052734 0)"/>
      <use xlink:href="#DejaVuSerif-20" transform="translate(418.066406 0)"/>
      <use xlink:href="#DejaVuSerif-61" transform="translate(449.853516 0)"/>
      <use xlink:href="#DejaVuSerif-6c" transform="translate(509.472656 0)"/>
      <use xlink:href="#DejaVuSerif-70" transform="translate(541.455078 0)"/>
      <use xlink:href="#DejaVuSerif-68" transform="translate(605.46875 0)"/>
      <use xlink:href="#DejaVuSerif-61" transform="translate(669.873047 0)"/>
     </g>
    </g>
   </g>
   <g id="matplotlib.axis_2">
    <g id="ytick_1">
     <g id="line2d_7">
      <path d="M 36.032813 170.666437
L 208.50554 170.666437
" clip-path="url(#p8a87132eb6)" style="fill: none; stroke: #d9d9d9; stroke-width: 0.6; stroke-linecap: square"/>
     </g>
     <g id="line2d_8">
      <defs>
       <path id="m051d98e3c2" d="M 0 0
L -3.5 0
" style="stroke: #000000; stroke-width: 0.8"/>
      </defs>
      <g>
       <use xlink:href="#m051d98e3c2" x="36.032813" y="170.666437" style="stroke: #000000; stroke-width: 0.8"/>
      </g>
     </g>
     <g id="text_5">
      <!-- 0.0 -->
      <g transform="translate(16.310313 173.705812) scale(0.08 -0.08)">
       <defs>
        <path id="DejaVuSerif-30" d="M 2034 219
Q 2513 219 2750 744
Q 2988 1269 2988 2328
Q 2988 3391 2750 3916
Q 2513 4441 2034 4441
Q 1556 4441 1318 3916
Q 1081 3391 1081 2328
Q 1081 1269 1318 744
Q 1556 219 2034 219
z
M 2034 -91
Q 1275 -91 848 546
Q 422 1184 422 2328
Q 422 3475 848 4112
Q 1275 4750 2034 4750
Q 2797 4750 3222 4112
Q 3647 3475 3647 2328
Q 3647 1184 3222 546
Q 2797 -91 2034 -91
z
" transform="scale(0.015625)"/>
        <path id="DejaVuSerif-2e" d="M 603 325
Q 603 500 722 622
Q 841 744 1019 744
Q 1191 744 1312 622
Q 1434 500 1434 325
Q 1434 153 1312 31
Q 1191 -91 1019 -91
Q 841 -91 722 29
Q 603 150 603 325
z
" transform="scale(0.015625)"/>
       </defs>
       <use xlink:href="#DejaVuSerif-30"/>
       <use xlink:href="#DejaVuSerif-2e" transform="translate(63.623047 0)"/>
       <use xlink:href="#DejaVuSerif-30" transform="translate(95.410156 0)"/>
      </g>
     </g>
    </g>
    <g id="ytick_2">
     <g id="line2d_9">
      <path d="M 36.032813 141.434437
L 208.50554 141.434437
" clip-path="url(#p8a87132eb6)" style="fill: none; stroke: #d9d9d9; stroke-width: 0.6; stroke-linecap: square"/>
     </g>
     <g id="line2d_10">
      <g>
       <use xlink:href="#m051d98e3c2" x="36.032813" y="141.434437" style="stroke: #000000; stroke-width: 0.8"/>
      </g>
     </g>
     <g id="text_6">
      <!-- 0.2 -->
      <g transform="translate(16.310313 144.473812) scale(0.08 -0.08)">
       <use xlink:href="#DejaVuSerif-30"/>
       <use xlink:href="#DejaVuSerif-2e" transform="translate(63.623047 0)"/>
       <use xlink:href="#DejaVuSerif-32" transform="translate(95.410156 0)"/>
      </g>
     </g>
    </g>
    <g id="ytick_3">
     <g id="line2d_11">
      <path d="M 36.032813 112.202437
L 208.50554 112.202437
" clip-path="url(#p8a87132eb6)" style="fill: none; stroke: #d9d9d9; stroke-width: 0.6; stroke-linecap: square"/>
     </g>
     <g id="line2d_12">
      <g>
       <use xlink:href="#m051d98e3c2" x="36.032813" y="112.202437" style="stroke: #000000; stroke-width: 0.8"/>
      </g>
     </g>
     <g id="text_7">
      <!-- 0.4 -->
      <g transform="translate(16.310313 115.241812) scale(0.08 -0.08)">
       <defs>
        <path id="DejaVuSerif-34" d="M 2234 1581
L 2234 4063
L 641 1581
L 2234 1581
z
M 3609 0
L 1484 0
L 1484 331
L 2234 331
L 2234 1247
L 197 1247
L 197 1588
L 2241 4750
L 2859 4750
L 2859 1581
L 3750 1581
L 3750 1247
L 2859 1247
L 2859 331
L 3609 331
L 3609 0
z
" transform="scale(0.015625)"/>
       </defs>
       <use xlink:href="#DejaVuSerif-30"/>
       <use xlink:href="#DejaVuSerif-2e" transform="translate(63.623047 0)"/>
       <use xlink:href="#DejaVuSerif-34" transform="translate(95.410156 0)"/>
      </g>
     </g>
    </g>
    <g id="ytick_4">
     <g id="line2d_13">
      <path d="M 36.032813 82.970437
L 208.50554 82.970437
" clip-path="url(#p8a87132eb6)" style="fill: none; stroke: #d9d9d9; stroke-width: 0.6; stroke-linecap: square"/>
     </g>
     <g id="line2d_14">
      <g>
       <use xlink:href="#m051d98e3c2" x="36.032813" y="82.970437" style="stroke: #000000; stroke-width: 0.8"/>
      </g>
     </g>
     <g id="text_8">
      <!-- 0.6 -->
      <g transform="translate(16.310313 86.009812) scale(0.08 -0.08)">
       <use xlink:href="#DejaVuSerif-30"/>
       <use xlink:href="#DejaVuSerif-2e" transform="translate(63.623047 0)"/>
       <use xlink:href="#DejaVuSerif-36" transform="translate(95.410156 0)"/>
      </g>
     </g>
    </g>
    <g id="ytick_5">
     <g id="line2d_15">
      <path d="M 36.032813 53.738437
L 208.50554 53.738437
" clip-path="url(#p8a87132eb6)" style="fill: none; stroke: #d9d9d9; stroke-width: 0.6; stroke-linecap: square"/>
     </g>
     <g id="line2d_16">
      <g>
       <use xlink:href="#m051d98e3c2" x="36.032813" y="53.738437" style="stroke: #000000; stroke-width: 0.8"/>
      </g>
     </g>
     <g id="text_9">
      <!-- 0.8 -->
      <g transform="translate(16.310313 56.777812) scale(0.08 -0.08)">
       <use xlink:href="#DejaVuSerif-30"/>
       <use xlink:href="#DejaVuSerif-2e" transform="translate(63.623047 0)"/>
       <use xlink:href="#DejaVuSerif-38" transform="translate(95.410156 0)"/>
      </g>
     </g>
    </g>
    <g id="ytick_6">
     <g id="line2d_17">
      <path d="M 36.032813 24.506437
L 208.50554 24.506437
" clip-path="url(#p8a87132eb6)" style="fill: none; stroke: #d9d9d9; stroke-width: 0.6; stroke-linecap: square"/>
     </g>
     <g id="line2d_18">
      <g>
       <use xlink:href="#m051d98e3c2" x="36.032813" y="24.506437" style="stroke: #000000; stroke-width: 0.8"/>
      </g>
     </g>
     <g id="text_10">
      <!-- 1.0 -->
      <g transform="translate(16.310313 27.545812) scale(0.08 -0.08)">
       <use xlink:href="#DejaVuSerif-31"/>
       <use xlink:href="#DejaVuSerif-2e" transform="translate(63.623047 0)"/>
       <use xlink:href="#DejaVuSerif-30" transform="translate(95.410156 0)"/>
      </g>
     </g>
    </g>
    <g id="text_11">
     <!-- rate -->
     <g transform="translate(10.438594 106.892297) rotate(-90) scale(0.09 -0.09)">
      <use xlink:href="#DejaVuSerif-72"/>
      <use xlink:href="#DejaVuSerif-61" transform="translate(47.802734 0)"/>
      <use xlink:href="#DejaVuSerif-74" transform="translate(107.421875 0)"/>
      <use xlink:href="#DejaVuSerif-65" transform="translate(147.607422 0)"/>
     </g>
    </g>
   </g>
   <g id="patch_3">
    <path d="M 36.032813 177.974437
L 36.032813 17.198437
" style="fill: none; stroke: #000000; stroke-width: 0.8; stroke-linejoin: miter; stroke-linecap: square"/>
   </g>
   <g id="patch_4">
    <path d="M 36.032813 177.974437
L 208.50554 177.974437
" style="fill: none; stroke: #000000; stroke-width: 0.8; stroke-linejoin: miter; stroke-linecap: square"/>
   </g>
   <g id="line2d_19">
    <path d="M 43.872482 170.666437
L 122.269176 170.666437
L 200.66587 170.666437
" clip-path="url(#p8a87132eb6)" style="fill: none; stroke: #4dac26; stroke-width: 1.5; stroke-linecap: square"/>
    <defs>
     <path id="mc7eb690046" d="M 0 2
C 0.530406 2 1.03916 1.789267 1.414214 1.414214
C 1.789267 1.03916 2 0.530406 2 0
C 2 -0.530406 1.789267 -1.03916 1.414214 -1.414214
C 1.03916 -1.789267 0.530406 -2 0 -2
C -0.530406 -2 -1.03916 -1.789267 -1.414214 -1.414214
C -1.789267 -1.03916 -2 -0.530406 -2 0
C -2 0.530406 -1.789267 1.03916 -1.414214 1.414214
C -1.03916 1.789267 -0.530406 2 0 2
z
" style="stroke: #4dac26"/>
    </defs>
    <g clip-path="url(#p8a87132eb6)">
     <use xlink:href="#mc7eb690046" x="43.872482" y="170.666437" style="fill: #4dac26; stroke: #4dac26"/>
     <use xlink:href="#mc7eb690046" x="122.269176" y="170.666437" style="fill: #4dac26; stroke: #4dac26"/>
     <use xlink:href="#mc7eb690046" x="200.66587" y="170.666437" style="fill: #4dac26; stroke: #4dac26"/>
    </g>
   </g>
   <g id="line2d_20">
    <path d="M 43.872482 170.666437
L 122.269176 170.666437
L 200.66587 170.666437
" clip-path="url(#p8a87132eb6)" style="fill: none; stroke: #d6604d; stroke-width: 1.5; stroke-linecap: square"/>
    <defs>
     <path id="m73aaa218af" d="M 0 2
C 0.530406 2 1.03916 1.789267 1.414214 1.414214
C 1.789267 1.03916 2 0.530406 2 0
C 2 -0.530406 1.789267 -1.03916 1.414214 -1.414214
C 1.03916 -1.789267 0.530406 -2 0 -2
C -0.530406 -2 -1.03916 -1.789267 -1.414214 -1.414214
C -1.789267 -1.03916 -2 -0.530406 -2 0
C -2 0.530406 -1.789267 1.03916 -1.414214 1.414214
C -1.03916 1.789267 -0.530406 2 0 2
z
" style="stroke: #d6604d"/>
    </defs>
    <g clip-path="url(#p8a87132eb6)">
     <use xlink:href="#m73aaa218af" x="43.872482" y="170.666437" style="fill: #d6604d; stroke: #d6604d"/>
     <use xlink:href="#m73aaa218af" x="122.269176" y="170.666437" style="fill: #d6604d; stroke: #d6604d"/>
     <use xlink:href="#m73aaa218af" x="200.66587" y="170.666437" style="fill: #d6604d; stroke: #d6604d"/>
    </g>
   </g>
   <g id="line2d_21">
    <path d="M 43.872482 24.506437
L 122.269176 61.046437
L 200.66587 115.856437
" clip-path="url(#p8a87132eb6)" style="fill: none; stroke: #2166ac; stroke-width: 1.5; stroke-linecap: square"/>
    <defs>
     <path id="m6cbf280b3b" d="M 0 2
C 0.530406 2 1.03916 1.789267 1.414214 1.414214
C 1.789267 1.03916 2 0.530406 2 0
C 2 -0.530406 1.789267 -1.03916 1.414214 -1.414214
C 1.03916 -1.789267 0.530406 -2 0 -2
C -0.530406 -2 -1.03916 -1.789267 -1.414214 -1.414214
C -1.789267 -1.03916 -2 -0.530406 -2 0
C -2 0.530406 -1.789267 1.03916 -1.414214 1.414214
C -1.03916 1.789267 -0.530406 2 0 2
z
" style="stroke: #2166ac"/>
    </defs>
    <g clip-path="url(#p8a87132eb6)">
     <use xlink:href="#m6cbf280b3b" x="43.872482" y="24.506437" style="fill: #2166ac; stroke: #2166ac"/>
     <use xlink:href="#m6cbf280b3b" x="122.269176" y="61.046437" style="fill: #2166ac; stroke: #2166ac"/>
     <use xlink:href="#m6cbf280b3b" x="200.66587" y="115.856437" style="fill: #2166ac; stroke: #2166ac"/>
    </g>
   </g>
   <g id="line2d_22">
    <path d="M 43.872482 24.506437
L 122.269176 24.506437
L 200.66587 134.126437
" clip-path="url(#p8a87132eb6)" style="fill: none; stroke: #f4a582; stroke-width: 1.5; stroke-linecap: square"/>
    <defs>
     <path id="maad10dba98" d="M 0 2
C 0.530406 2 1.03916 1.789267 1.414214 1.414214
C 1.789267 1.03916 2 0.530406 2 0
C 2 -0.530406 1.789267 -1.03916 1.414214 -1.414214
C 1.03916 -1.789267 0.530406 -2 0 -2
C -0.530406 -2 -1.03916 -1.789267 -1.414214 -1.414214
C -1.789267 -1.03916 -2 -0.530406 -2 0
C -2 0.530406 -1.789267 1.03916 -1.414214 1.414214
C -1.03916 1.789267 -0.530406 2 0 2
z
" style="stroke: #f4a582"/>
    </defs>
    <g clip-path="url(#p8a87132eb6)">
     <use xlink:href="#maad10dba98" x="43.872482" y="24.506437" style="fill: #f4a582; stroke: #f4a582"/>
     <use xlink:href="#maad10dba98" x="122.269176" y="24.506437" style="fill: #f4a582; stroke: #f4a582"/>
     <use xlink:href="#maad10dba98" x="200.66587" y="134.126437" style="fill: #f4a582; stroke: #f4a582"/>
    </g>
   </g>
   <g id="text_12">
    <!-- linear -->
    <g transform="translate(36.032813 11.198437) scale(0.1 -0.1)">
     <use xlink:href="#DejaVuSerif-6c"/>
     <use xlink:href="#DejaVuSerif-69" transform="translate(31.982422 0)"/>
     <use xlink:href="#DejaVuSerif-6e" transform="translate(63.964844 0)"/>
     <use xlink:href="#DejaVuSerif-65" transform="translate(128.369141 0)"/>
     <use xlink:href="#DejaVuSerif-61" transform="translate(187.548828 0)"/>
     <use xlink:href="#DejaVuSerif-72" transform="translate(247.167969 0)"/>
    </g>
   </g>
  </g>
  <g id="axes_2">
   <g id="patch_5">
    <path d="M 243.000085 177.974437
L 415.472812 177.974437
L 415.472812 17.198437
L 243.000085 17.198437
z
" style="fill: #ffffff"/>
   </g>
   <g id="matplotlib.axis_3">
    <g id="xtick_4">
     <g id="line2d_23">
      <path d="M 250.839755 177.974437
L 250.839755 17.198437
" clip-path="url(#p3a0436d079)" style="fill: none; stroke: #d9d9d9; stroke-width: 0.6; stroke-linecap: square"/>
     </g>
     <g id="line2d_24">
      <g>
       <use xlink:href="#me44aef661c" x="250.839755" y="177.974437" style="stroke: #000000; stroke-width: 0.8"/>
      </g>
     </g>
     <g id="text_13">
      <!-- 8 -->
      <g transform="translate(248.294755 191.053187) scale(0.08 -0.08)">
       <use xlink:href="#DejaVuSerif-38"/>
      </g>
     </g>
    </g>
    <g id="xtick_5">
     <g id="line2d_25">
      <path d="M 329.236449 177.974437
L 329.236449 17.198437
" clip-path="url(#p3a0436d079)" style="fill: none; stroke: #d9d9d9; stroke-width: 0.6; stroke-linecap: square"/>
     </g>
     <g id="line2d_26">
      <g>
       <use xlink:href="#me44aef661c" x="329.236449" y="177.974437" style="stroke: #000000; stroke-width: 0.8"/>
      </g>
     </g>
     <g id="text_14">
      <!-- 12 -->
      <g transform="translate(324.146449 191.053187) scale(0.08 -0.08)">
       <use xlink:href="#DejaVuSerif-31"/>
       <use xlink:href="#DejaVuSerif-32" transform="translate(63.623047 0)"/>
      </g>
     </g>
    </g>
    <g id="xtick_6">
     <g id="line2d_27">
      <path d="M 407.633143 177.974437
L 407.633143 17.198437
" clip-path="url(#p3a0436d079)" style="fill: none; stroke: #d9d9d9; stroke-width: 0.6; stroke-linecap: square"/>
     </g>
     <g id="line2d_28">
      <g>
       <use xlink:href="#me44aef661c" x="407.633143" y="177.974437" style="stroke: #000000; stroke-width: 0.8"/>
      </g>
     </g>
     <g id="text_15">
      <!-- 16 -->
      <g transform="translate(402.543143 191.053187) scale(0.08 -0.08)">
       <use xlink:href="#DejaVuSerif-31"/>
       <use xlink:href="#DejaVuSerif-36" transform="translate(63.623047 0)"/>
      </g>
     </g>
    </g>
    <g id="text_16">
     <!-- steering alpha -->
     <g transform="translate(296.408246 203.555531) scale(0.09 -0.09)">
      <use xlink:href="#DejaVuSerif-73"/>
      <use xlink:href="#DejaVuSerif-74" transform="translate(51.318359 0)"/>
      <use xlink:href="#DejaVuSerif-65" transform="translate(91.503906 0)"/>
      <use xlink:href="#DejaVuSerif-65" transform="translate(150.683594 0)"/>
      <use xlink:href="#DejaVuSerif-72" transform="translate(209.863281 0)"/>
      <use xlink:href="#DejaVuSerif-69" transform="translate(257.666016 0)"/>
      <use xlink:href="#DejaVuSerif-6e" transform="translate(289.648438 0)"/>
      <use xlink:href="#DejaVuSerif-67" transform="translate(354.052734 0)"/>
      <use xlink:href="#DejaVuSerif-20" transform="translate(418.066406 0)"/>
      <use xlink:href="#DejaVuSerif-61" transform="translate(449.853516 0)"/>
      <use xlink:href="#DejaVuSerif-6c" transform="translate(509.472656 0)"/>
      <use xlink:href="#DejaVuSerif-70" transform="translate(541.455078 0)"/>
      <use xlink:href="#DejaVuSerif-68" transform="translate(605.46875 0)"/>
      <use xlink:href="#DejaVuSerif-61" transform="translate(669.873047 0)"/>
     </g>
    </g>
   </g>
   <g id="matplotlib.axis_4">
    <g id="ytick_7">
     <g id="line2d_29">
      <path d="M 243.000085 170.666437
L 415.472812 170.666437
" clip-path="url(#p3a0436d079)" style="fill: none; stroke: #d9d9d9; stroke-width: 0.6; stroke-linecap: square"/>
     </g>
     <g id="line2d_30">
      <g>
       <use xlink:href="#m051d98e3c2" x="243.000085" y="170.666437" style="stroke: #000000; stroke-width: 0.8"/>
      </g>
     </g>
    </g>
    <g id="ytick_8">
     <g id="line2d_31">
      <path d="M 243.000085 141.434437
L 415.472812 141.434437
" clip-path="url(#p3a0436d079)" style="fill: none; stroke: #d9d9d9; stroke-width: 0.6; stroke-linecap: square"/>
     </g>
     <g id="line2d_32">
      <g>
       <use xlink:href="#m051d98e3c2" x="243.000085" y="141.434437" style="stroke: #000000; stroke-width: 0.8"/>
      </g>
     </g>
    </g>
    <g id="ytick_9">
     <g id="line2d_33">
      <path d="M 243.000085 112.202437
L 415.472812 112.202437
" clip-path="url(#p3a0436d079)" style="fill: none; stroke: #d9d9d9; stroke-width: 0.6; stroke-linecap: square"/>
     </g>
     <g id="line2d_34">
      <g>
       <use xlink:href="#m051d98e3c2" x="243.000085" y="112.202437" style="stroke: #000000; stroke-width: 0.8"/>
      </g>
     </g>
    </g>
    <g id="ytick_10">
     <g id="line2d_35">
      <path d="M 243.000085 82.970437
L 415.472812 82.970437
" clip-path="url(#p3a0436d079)" style="fill: none; stroke: #d9d9d9; stroke-width: 0.6; stroke-linecap: square"/>
     </g>
     <g id="line2d_36">
      <g>
       <use xlink:href="#m051d98e3c2" x="243.000085" y="82.970437" style="stroke: #000000; stroke-width: 0.8"/>
      </g>
     </g>
    </g>
    <g id="ytick_11">
     <g id="line2d_37">
      <path d="M 243.000085 53.738437
L 415.472812 53.738437
" clip-path="url(#p3a0436d079)" style="fill: none; stroke: #d9d9d9; stroke-width: 0.6; stroke-linecap: square"/>
     </g>
     <g id="line2d_38">
      <g>
       <use xlink:href="#m051d98e3c2" x="243.000085" y="53.738437" style="stroke: #000000; stroke-width: 0.8"/>
      </g>
     </g>
    </g>
    <g id="ytick_12">
     <g id="line2d_39">
      <path d="M 243.000085 24.506437
L 415.472812 24.506437
" clip-path="url(#p3a0436d079)" style="fill: none; stroke: #d9d9d9; stroke-width: 0.6; stroke-linecap: square"/>
     </g>
     <g id="line2d_40">
      <g>
       <use xlink:href="#m051d98e3c2" x="243.000085" y="24.506437" style="stroke: #000000; stroke-width: 0.8"/>
      </g>
     </g>
    </g>
   </g>
   <g id="patch_6">
    <path d="M 243.000085 177.974437
L 243.000085 17.198437
" style="fill: none; stroke: #000000; stroke-width: 0.8; stroke-linejoin: miter; stroke-linecap: square"/>
   </g>
   <g id="patch_7">
    <path d="M 243.000085 177.974437
L 415.472812 177.974437
" style="fill: none; stroke: #000000; stroke-width: 0.8; stroke-linejoin: miter; stroke-linecap: square"/>
   </g>
   <g id="line2d_41">
    <path d="M 250.839755 170.666437
L 329.236449 170.666437
L 407.633143 152.396437
" clip-path="url(#p3a0436d079)" style="fill: none; stroke: #4dac26; stroke-width: 1.5; stroke-linecap: square"/>
    <g clip-path="url(#p3a0436d079)">
     <use xlink:href="#mc7eb690046" x="250.839755" y="170.666437" style="fill: #4dac26; stroke: #4dac26"/>
     <use xlink:href="#mc7eb690046" x="329.236449" y="170.666437" style="fill: #4dac26; stroke: #4dac26"/>
     <use xlink:href="#mc7eb690046" x="407.633143" y="152.396437" style="fill: #4dac26; stroke: #4dac26"/>
    </g>
   </g>
   <g id="line2d_42">
    <path d="M 250.839755 170.666437
L 329.236449 170.666437
L 407.633143 170.666437
" clip-path="url(#p3a0436d079)" style="fill: none; stroke: #d6604d; stroke-width: 1.5; stroke-linecap: square"/>
    <g clip-path="url(#p3a0436d079)">
     <use xlink:href="#m73aaa218af" x="250.839755" y="170.666437" style="fill: #d6604d; stroke: #d6604d"/>
     <use xlink:href="#m73aaa218af" x="329.236449" y="170.666437" style="fill: #d6604d; stroke: #d6604d"/>
     <use xlink:href="#m73aaa218af" x="407.633143" y="170.666437" style="fill: #d6604d; stroke: #d6604d"/>
    </g>
   </g>
   <g id="line2d_43">
    <path d="M 250.839755 24.506437
L 329.236449 24.506437
L 407.633143 24.506437
" clip-path="url(#p3a0436d079)" style="fill: none; stroke: #2166ac; stroke-width: 1.5; stroke-linecap: square"/>
    <g clip-path="url(#p3a0436d079)">
     <use xlink:href="#m6cbf280b3b" x="250.839755" y="24.506437" style="fill: #2166ac; stroke: #2166ac"/>
     <use xlink:href="#m6cbf280b3b" x="329.236449" y="24.506437" style="fill: #2166ac; stroke: #2166ac"/>
     <use xlink:href="#m6cbf280b3b" x="407.633143" y="24.506437" style="fill: #2166ac; stroke: #2166ac"/>
    </g>
   </g>
   <g id="line2d_44">
    <path d="M 250.839755 42.776437
L 329.236449 42.776437
L 407.633143 79.316437
" clip-path="url(#p3a0436d079)" style="fill: none; stroke: #f4a582; stroke-width: 1.5; stroke-linecap: square"/>
    <g clip-path="url(#p3a0436d079)">
     <use xlink:href="#maad10dba98" x="250.839755" y="42.776437" style="fill: #f4a582; stroke: #f4a582"/>
     <use xlink:href="#maad10dba98" x="329.236449" y="42.776437" style="fill: #f4a582; stroke: #f4a582"/>
     <use xlink:href="#maad10dba98" x="407.633143" y="79.316437" style="fill: #f4a582; stroke: #f4a582"/>
    </g>
   </g>
   <g id="text_17">
    <!-- tangent -->
    <g transform="translate(243.000085 11.198437) scale(0.1 -0.1)">
     <use xlink:href="#DejaVuSerif-74"/>
     <use xlink:href="#DejaVuSerif-61" transform="translate(40.185547 0)"/>
     <use xlink:href="#DejaVuSerif-6e" transform="translate(99.804688 0)"/>
     <use xlink:href="#DejaVuSerif-67" transform="translate(164.208984 0)"/>
     <use xlink:href="#DejaVuSerif-65" transform="translate(228.222656 0)"/>
     <use xlink:href="#DejaVuSerif-6e" transform="translate(287.402344 0)"/>
     <use xlink:href="#DejaVuSerif-74" transform="translate(351.806641 0)"/>
    </g>
   </g>
   <g id="legend_1">
    <g id="line2d_45">
     <path d="M 421.322812 82.432297
L 427.822812 82.432297
L 434.322812 82.432297
" style="fill: none; stroke: #4dac26; stroke-width: 1.5; stroke-linecap: square"/>
     <g>
      <use xlink:href="#mc7eb690046" x="427.822812" y="82.432297" style="fill: #4dac26; stroke: #4dac26"/>
     </g>
    </g>
    <g id="text_18">
     <!-- false_FAIL→PASS fix -->
     <g transform="translate(439.522812 84.707297) scale(0.065 -0.065)">
      <defs>
       <path id="DejaVuSerif-66" d="M 2753 4078
L 2450 4078
Q 2447 4313 2317 4434
Q 2188 4556 1941 4556
Q 1619 4556 1487 4379
Q 1356 4203 1356 3750
L 1356 3322
L 2284 3322
L 2284 2988
L 1356 2988
L 1356 331
L 2094 331
L 2094 0
L 231 0
L 231 331
L 781 331
L 781 2988
L 231 2988
L 231 3322
L 781 3322
L 781 3738
Q 781 4294 1070 4578
Q 1359 4863 1919 4863
Q 2128 4863 2337 4825
Q 2547 4788 2753 4709
L 2753 4078
z
" transform="scale(0.015625)"/>
       <path id="DejaVuSerif-5f" d="M 3200 -1259
L 3200 -1509
L 0 -1509
L 0 -1259
L 3200 -1259
z
" transform="scale(0.015625)"/>
       <path id="DejaVuSerif-46" d="M 353 0
L 353 331
L 947 331
L 947 4331
L 353 4331
L 353 4666
L 4172 4666
L 4172 3628
L 3788 3628
L 3788 4281
L 1581 4281
L 1581 2719
L 3175 2719
L 3175 3303
L 3559 3303
L 3559 1753
L 3175 1753
L 3175 2338
L 1581 2338
L 1581 331
L 2328 331
L 2328 0
L 353 0
z
" transform="scale(0.015625)"/>
       <path id="DejaVuSerif-41" d="M 1281 1691
L 2994 1691
L 2138 3909
L 1281 1691
z
M -38 0
L -38 331
L 372 331
L 2034 4666
L 2559 4666
L 4225 331
L 4684 331
L 4684 0
L 2988 0
L 2988 331
L 3506 331
L 3116 1356
L 1153 1356
L 763 331
L 1275 331
L 1275 0
L -38 0
z
" transform="scale(0.015625)"/>
       <path id="DejaVuSerif-49" d="M 1581 331
L 2175 331
L 2175 0
L 353 0
L 353 331
L 947 331
L 947 4331
L 353 4331
L 353 4666
L 2175 4666
L 2175 4331
L 1581 4331
L 1581 331
z
" transform="scale(0.015625)"/>
       <path id="DejaVuSerif-4c" d="M 353 0
L 353 331
L 947 331
L 947 4331
L 353 4331
L 353 4666
L 2175 4666
L 2175 4331
L 1581 4331
L 1581 384
L 3713 384
L 3713 1166
L 4097 1166
L 4097 0
L 353 0
z
" transform="scale(0.015625)"/>
       <path id="DejaVuSerif-2192" d="M 366 2322
L 4391 2322
L 3788 3375
L 3822 3375
L 5125 2084
L 5125 2053
L 3822 763
L 3788 763
L 4391 1816
L 366 1816
L 366 2322
z
" transform="scale(0.015625)"/>
       <path id="DejaVuSerif-50" d="M 1581 2375
L 2406 2375
Q 2872 2375 3115 2626
Q 3359 2878 3359 3353
Q 3359 3831 3115 4081
Q 2872 4331 2406 4331
L 1581 4331
L 1581 2375
z
M 353 0
L 353 331
L 947 331
L 947 4331
L 353 4331
L 353 4666
L 2559 4666
Q 3259 4666 3668 4311
Q 4078 3956 4078 3353
Q 4078 2753 3668 2397
Q 3259 2041 2559 2041
L 1581 2041
L 1581 331
L 2303 331
L 2303 0
L 353 0
z
" transform="scale(0.015625)"/>
       <path id="DejaVuSerif-53" d="M 594 225
L 594 1288
L 953 1284
Q 969 753 1261 498
Q 1553 244 2150 244
Q 2706 244 2998 464
Q 3291 684 3291 1106
Q 3291 1444 3114 1625
Q 2938 1806 2369 1978
L 1753 2163
Q 1084 2366 811 2669
Q 538 2972 538 3500
Q 538 4094 959 4422
Q 1381 4750 2144 4750
Q 2469 4750 2856 4679
Q 3244 4609 3681 4475
L 3681 3481
L 3328 3481
Q 3275 3975 2998 4195
Q 2722 4416 2156 4416
Q 1663 4416 1405 4214
Q 1147 4013 1147 3628
Q 1147 3294 1340 3103
Q 1534 2913 2163 2725
L 2741 2553
Q 3375 2363 3645 2067
Q 3916 1772 3916 1275
Q 3916 597 3481 253
Q 3047 -91 2188 -91
Q 1803 -91 1404 -12
Q 1006 66 594 225
z
" transform="scale(0.015625)"/>
       <path id="DejaVuSerif-78" d="M 1863 2028
L 2559 2988
L 2113 2988
L 2113 3322
L 3391 3322
L 3391 2988
L 2950 2988
L 2059 1759
L 3097 331
L 3531 331
L 3531 0
L 1997 0
L 1997 331
L 2419 331
L 1697 1325
L 972 331
L 1403 331
L 1403 0
L 141 0
L 141 331
L 581 331
L 1497 1594
L 488 2988
L 78 2988
L 78 3322
L 1563 3322
L 1563 2988
L 1166 2988
L 1863 2028
z
" transform="scale(0.015625)"/>
      </defs>
      <use xlink:href="#DejaVuSerif-66"/>
      <use xlink:href="#DejaVuSerif-61" transform="translate(37.011719 0)"/>
      <use xlink:href="#DejaVuSerif-6c" transform="translate(96.630859 0)"/>
      <use xlink:href="#DejaVuSerif-73" transform="translate(128.613281 0)"/>
      <use xlink:href="#DejaVuSerif-65" transform="translate(179.931641 0)"/>
      <use xlink:href="#DejaVuSerif-5f" transform="translate(239.111328 0)"/>
      <use xlink:href="#DejaVuSerif-46" transform="translate(289.111328 0)"/>
      <use xlink:href="#DejaVuSerif-41" transform="translate(349.746094 0)"/>
      <use xlink:href="#DejaVuSerif-49" transform="translate(421.962891 0)"/>
      <use xlink:href="#DejaVuSerif-4c" transform="translate(461.464844 0)"/>
      <use xlink:href="#DejaVuSerif-2192" transform="translate(527.871094 0)"/>
      <use xlink:href="#DejaVuSerif-50" transform="translate(611.660156 0)"/>
      <use xlink:href="#DejaVuSerif-41" transform="translate(669.820312 0)"/>
      <use xlink:href="#DejaVuSerif-53" transform="translate(742.037109 0)"/>
      <use xlink:href="#DejaVuSerif-53" transform="translate(808.792969 0)"/>
      <use xlink:href="#DejaVuSerif-20" transform="translate(877.298828 0)"/>
      <use xlink:href="#DejaVuSerif-66" transform="translate(909.085938 0)"/>
      <use xlink:href="#DejaVuSerif-69" transform="translate(946.097656 0)"/>
      <use xlink:href="#DejaVuSerif-78" transform="translate(978.080078 0)"/>
     </g>
    </g>
    <g id="line2d_46">
     <path d="M 421.322812 92.153859
L 427.822812 92.153859
L 434.322812 92.153859
" style="fill: none; stroke: #d6604d; stroke-width: 1.5; stroke-linecap: square"/>
     <g>
      <use xlink:href="#m73aaa218af" x="427.822812" y="92.153859" style="fill: #d6604d; stroke: #d6604d"/>
     </g>
    </g>
    <g id="text_19">
     <!-- false_PASS→FAIL fix -->
     <g transform="translate(439.522812 94.428859) scale(0.065 -0.065)">
      <use xlink:href="#DejaVuSerif-66"/>
      <use xlink:href="#DejaVuSerif-61" transform="translate(37.011719 0)"/>
      <use xlink:href="#DejaVuSerif-6c" transform="translate(96.630859 0)"/>
      <use xlink:href="#DejaVuSerif-73" transform="translate(128.613281 0)"/>
      <use xlink:href="#DejaVuSerif-65" transform="translate(179.931641 0)"/>
      <use xlink:href="#DejaVuSerif-5f" transform="translate(239.111328 0)"/>
      <use xlink:href="#DejaVuSerif-50" transform="translate(289.111328 0)"/>
      <use xlink:href="#DejaVuSerif-41" transform="translate(347.271484 0)"/>
      <use xlink:href="#DejaVuSerif-53" transform="translate(419.488281 0)"/>
      <use xlink:href="#DejaVuSerif-53" transform="translate(486.244141 0)"/>
      <use xlink:href="#DejaVuSerif-2192" transform="translate(554.75 0)"/>
      <use xlink:href="#DejaVuSerif-46" transform="translate(638.539062 0)"/>
      <use xlink:href="#DejaVuSerif-41" transform="translate(699.173828 0)"/>
      <use xlink:href="#DejaVuSerif-49" transform="translate(771.390625 0)"/>
      <use xlink:href="#DejaVuSerif-4c" transform="translate(810.892578 0)"/>
      <use xlink:href="#DejaVuSerif-20" transform="translate(877.298828 0)"/>
      <use xlink:href="#DejaVuSerif-66" transform="translate(909.085938 0)"/>
      <use xlink:href="#DejaVuSerif-69" transform="translate(946.097656 0)"/>
      <use xlink:href="#DejaVuSerif-78" transform="translate(978.080078 0)"/>
     </g>
    </g>
    <g id="line2d_47">
     <path d="M 421.322812 101.875422
L 427.822812 101.875422
L 434.322812 101.875422
" style="fill: none; stroke: #2166ac; stroke-width: 1.5; stroke-linecap: square"/>
     <g>
      <use xlink:href="#m6cbf280b3b" x="427.822812" y="101.875422" style="fill: #2166ac; stroke: #2166ac"/>
     </g>
    </g>
    <g id="text_20">
     <!-- honest_PASS kept -->
     <g transform="translate(439.522812 104.150422) scale(0.065 -0.065)">
      <defs>
       <path id="DejaVuSerif-6f" d="M 1925 219
Q 2388 219 2623 584
Q 2859 950 2859 1663
Q 2859 2375 2623 2739
Q 2388 3103 1925 3103
Q 1463 3103 1227 2739
Q 991 2375 991 1663
Q 991 950 1228 584
Q 1466 219 1925 219
z
M 1925 -91
Q 1200 -91 759 389
Q 319 869 319 1663
Q 319 2456 758 2934
Q 1197 3413 1925 3413
Q 2653 3413 3092 2934
Q 3531 2456 3531 1663
Q 3531 869 3092 389
Q 2653 -91 1925 -91
z
" transform="scale(0.015625)"/>
       <path id="DejaVuSerif-6b" d="M 1831 0
L 219 0
L 219 331
L 738 331
L 738 4531
L 184 4531
L 184 4863
L 1313 4863
L 1313 1697
L 2713 2988
L 2234 2988
L 2234 3322
L 3738 3322
L 3738 2988
L 3169 2988
L 2181 2075
L 3444 331
L 3922 331
L 3922 0
L 2284 0
L 2284 331
L 2759 331
L 1766 1697
L 1313 1275
L 1313 331
L 1831 331
L 1831 0
z
" transform="scale(0.015625)"/>
      </defs>
      <use xlink:href="#DejaVuSerif-68"/>
      <use xlink:href="#DejaVuSerif-6f" transform="translate(64.404297 0)"/>
      <use xlink:href="#DejaVuSerif-6e" transform="translate(124.609375 0)"/>
      <use xlink:href="#DejaVuSerif-65" transform="translate(189.013672 0)"/>
      <use xlink:href="#DejaVuSerif-73" transform="translate(248.193359 0)"/>
      <use xlink:href="#DejaVuSerif-74" transform="translate(299.511719 0)"/>
      <use xlink:href="#DejaVuSerif-5f" transform="translate(339.697266 0)"/>
      <use xlink:href="#DejaVuSerif-50" transform="translate(389.697266 0)"/>
      <use xlink:href="#DejaVuSerif-41" transform="translate(447.857422 0)"/>
      <use xlink:href="#DejaVuSerif-53" transform="translate(520.074219 0)"/>
      <use xlink:href="#DejaVuSerif-53" transform="translate(586.830078 0)"/>
      <use xlink:href="#DejaVuSerif-20" transform="translate(655.335938 0)"/>
      <use xlink:href="#DejaVuSerif-6b" transform="translate(687.123047 0)"/>
      <use xlink:href="#DejaVuSerif-65" transform="translate(747.71875 0)"/>
      <use xlink:href="#DejaVuSerif-70" transform="translate(806.898438 0)"/>
      <use xlink:href="#DejaVuSerif-74" transform="translate(870.912109 0)"/>
     </g>
    </g>
    <g id="line2d_48">
     <path d="M 421.322812 111.596984
L 427.822812 111.596984
L 434.322812 111.596984
" style="fill: none; stroke: #f4a582; stroke-width: 1.5; stroke-linecap: square"/>
     <g>
      <use xlink:href="#maad10dba98" x="427.822812" y="111.596984" style="fill: #f4a582; stroke: #f4a582"/>
     </g>
    </g>
    <g id="text_21">
     <!-- honest_FAIL kept -->
     <g transform="translate(439.522812 113.871984) scale(0.065 -0.065)">
      <use xlink:href="#DejaVuSerif-68"/>
      <use xlink:href="#DejaVuSerif-6f" transform="translate(64.404297 0)"/>
      <use xlink:href="#DejaVuSerif-6e" transform="translate(124.609375 0)"/>
      <use xlink:href="#DejaVuSerif-65" transform="translate(189.013672 0)"/>
      <use xlink:href="#DejaVuSerif-73" transform="translate(248.193359 0)"/>
      <use xlink:href="#DejaVuSerif-74" transform="translate(299.511719 0)"/>
      <use xlink:href="#DejaVuSerif-5f" transform="translate(339.697266 0)"/>
      <use xlink:href="#DejaVuSerif-46" transform="translate(389.697266 0)"/>
      <use xlink:href="#DejaVuSerif-41" transform="translate(450.332031 0)"/>
      <use xlink:href="#DejaVuSerif-49" transform="translate(522.548828 0)"/>
      <use xlink:href="#DejaVuSerif-4c" transform="translate(562.050781 0)"/>
      <use xlink:href="#DejaVuSerif-20" transform="translate(628.457031 0)"/>
      <use xlink:href="#DejaVuSerif-6b" transform="translate(660.244141 0)"/>
      <use xlink:href="#DejaVuSerif-65" transform="translate(720.839844 0)"/>
      <use xlink:href="#DejaVuSerif-70" transform="translate(780.019531 0)"/>
      <use xlink:href="#DejaVuSerif-74" transform="translate(844.033203 0)"/>
     </g>
    </g>
   </g>
  </g>
 </g>
 <defs>
  <clipPath id="p8a87132eb6">
   <rect x="36.032813" y="17.198437" width="172.472727" height="160.776"/>
  </clipPath>
  <clipPath id="p3a0436d079">
   <rect x="243.000085" y="17.198437" width="172.472727" height="160.776"/>
  </clipPath>
 </defs>
</svg>
