<?xml version="1.0" encoding="utf-8" standalone="no"?>
<!DOCTYPE svg PUBLIC "-//W3C//DTD SVG 1.1//EN"
  "http://www.w3.org/Graphics/SVG/1.1/DTD/svg11.dtd">
<svg xmlns:xlink="http://www.w3.org/1999/xlink" width="301.892813pt" height="192.39525pt" viewBox="0 0 301.892813 192.39525" xmlns="http://www.w3.org/2000/svg" version="1.1">
 <metadata>
  <rdf:RDF xmlns:dc="http://purl.org/dc/elements/1.1/" xmlns:cc="http://creativecommons.org/ns#" xmlns:rdf="http://www.w3.org/1999/02/22-rdf-syntax-ns#">
   <cc:Work>
    <dc:type rdf:resource="http://purl.org/dc/dcmitype/StillImage"/>
    <dc:date>2026-06-27T13:21:24.597982</dc:date>
    <dc:format>image/svg+xml</dc:format>
    <dc:creator>
     <cc:Agent>
      <dc:title>Matplotlib v3.10.9, https://matplotlib.org/</dc:title>
     </cc:Agent>
    </dc:creator>
   </cc:Work>
  </rdf:RDF>
 </metadata>
 <defs>
  <style type="text/css">*{stroke-linejoin: round; stroke-linecap: butt}</style>
 </defs>
 <g id="figure_1">
  <g id="patch_1">
   <path d="M 0 192.39525
L 301.892813 192.39525
L 301.892813 0
L 0 0
z
" style="fill: #ffffff"/>
  </g>
  <g id="axes_1">
   <g id="patch_2">
    <path d="M 36.032813 161.342437
L 298.292813 161.342437
L 298.292813 17.198437
L 36.032813 17.198437
z
" style="fill: #ffffff"/>
   </g>
   <g id="matplotlib.axis_1">
    <g id="xtick_1">
     <g id="line2d_1">
      <path d="M 47.953722 161.342437
L 47.953722 17.198437
" clip-path="url(#pb2fb8a8442)" style="fill: none; stroke: #d9d9d9; stroke-width: 0.6; stroke-linecap: square"/>
     </g>
     <g id="line2d_2">
      <defs>
       <path id="mad669b78c0" d="M 0 0
L 0 3.5
" style="stroke: #000000; stroke-width: 0.8"/>
      </defs>
      <g>
       <use xlink:href="#mad669b78c0" x="47.953722" y="161.342437" style="stroke: #000000; stroke-width: 0.8"/>
      </g>
     </g>
     <g id="text_1">
      <!-- 0 -->
      <g transform="translate(45.408722 174.421187) scale(0.08 -0.08)">
       <defs>
        <path id="DejaVuSerif-30" d="M 2034 219
Q 2513 219 2750 744
Q 2988 1269 2988 2328
Q 2988 3391 2750 3916
Q 2513 4441 2034 4441
Q 1556 4441 1318 3916
Q 1081 3391 1081 2328
Q 1081 1269 1318 744
Q 1556 219 2034 219
z
M 2034 -91
Q 1275 -91 848 546
Q 422 1184 422 2328
Q 422 3475 848 4112
Q 1275 4750 2034 4750
Q 2797 4750 3222 4112
Q 3647 3475 3647 2328
Q 3647 1184 3222 546
Q 2797 -91 2034 -91
z
" transform="scale(0.015625)"/>
       </defs>
       <use xlink:href="#DejaVuSerif-30"/>
      </g>
     </g>
    </g>
    <g id="xtick_2">
     <g id="line2d_3">
      <path d="M 87.690085 161.342437
L 87.690085 17.198437
" clip-path="url(#pb2fb8a8442)" style="fill: none; stroke: #d9d9d9; stroke-width: 0.6; stroke-linecap: square"/>
     </g>
     <g id="line2d_4">
      <g>
       <use xlink:href="#mad669b78c0" x="87.690085" y="161.342437" style="stroke: #000000; stroke-width: 0.8"/>
      </g>
     </g>
     <g id="text_2">
      <!-- 1 -->
      <g transform="translate(85.145085 174.421187) scale(0.08 -0.08)">
       <defs>
        <path id="DejaVuSerif-31" d="M 909 0
L 909 331
L 1722 331
L 1722 4213
L 781 3603
L 781 4013
L 1919 4750
L 2350 4750
L 2350 331
L 3163 331
L 3163 0
L 909 0
z
" transform="scale(0.015625)"/>
       </defs>
       <use xlink:href="#DejaVuSerif-31"/>
      </g>
     </g>
    </g>
    <g id="xtick_3">
     <g id="line2d_5">
      <path d="M 127.426449 161.342437
L 127.426449 17.198437
" clip-path="url(#pb2fb8a8442)" style="fill: none; stroke: #d9d9d9; stroke-width: 0.6; stroke-linecap: square"/>
     </g>
     <g id="line2d_6">
      <g>
       <use xlink:href="#mad669b78c0" x="127.426449" y="161.342437" style="stroke: #000000; stroke-width: 0.8"/>
      </g>
     </g>
     <g id="text_3">
      <!-- 2 -->
      <g transform="translate(124.881449 174.421187) scale(0.08 -0.08)">
       <defs>
        <path id="DejaVuSerif-32" d="M 819 3553
L 469 3553
L 469 4384
Q 803 4563 1142 4656
Q 1481 4750 1806 4750
Q 2534 4750 2956 4397
Q 3378 4044 3378 3438
Q 3378 2753 2422 1800
Q 2347 1728 2309 1691
L 1131 513
L 3078 513
L 3078 1088
L 3444 1088
L 3444 0
L 434 0
L 434 341
L 1850 1753
Q 2319 2222 2519 2614
Q 2719 3006 2719 3438
Q 2719 3909 2473 4175
Q 2228 4441 1797 4441
Q 1350 4441 1106 4219
Q 863 3997 819 3553
z
" transform="scale(0.015625)"/>
       </defs>
       <use xlink:href="#DejaVuSerif-32"/>
      </g>
     </g>
    </g>
    <g id="xtick_4">
     <g id="line2d_7">
      <path d="M 167.162813 161.342437
L 167.162813 17.198437
" clip-path="url(#pb2fb8a8442)" style="fill: none; stroke: #d9d9d9; stroke-width: 0.6; stroke-linecap: square"/>
     </g>
     <g id="line2d_8">
      <g>
       <use xlink:href="#mad669b78c0" x="167.162813" y="161.342437" style="stroke: #000000; stroke-width: 0.8"/>
      </g>
     </g>
     <g id="text_4">
      <!-- 3 -->
      <g transform="translate(164.617813 174.421187) scale(0.08 -0.08)">
       <defs>
        <path id="DejaVuSerif-33" d="M 622 4469
Q 988 4606 1323 4678
Q 1659 4750 1953 4750
Q 2638 4750 3022 4454
Q 3406 4159 3406 3634
Q 3406 3213 3140 2930
Q 2875 2647 2388 2547
Q 2963 2466 3280 2130
Q 3597 1794 3597 1259
Q 3597 606 3158 257
Q 2719 -91 1894 -91
Q 1528 -91 1179 -12
Q 831 66 488 225
L 488 1131
L 838 1131
Q 869 681 1141 450
Q 1413 219 1906 219
Q 2384 219 2661 495
Q 2938 772 2938 1253
Q 2938 1803 2653 2086
Q 2369 2369 1819 2369
L 1522 2369
L 1522 2688
L 1678 2688
Q 2225 2688 2498 2914
Q 2772 3141 2772 3597
Q 2772 4006 2547 4223
Q 2322 4441 1900 4441
Q 1478 4441 1245 4241
Q 1013 4041 972 3647
L 622 3647
L 622 4469
z
" transform="scale(0.015625)"/>
       </defs>
       <use xlink:href="#DejaVuSerif-33"/>
      </g>
     </g>
    </g>
    <g id="xtick_5">
     <g id="line2d_9">
      <path d="M 206.899176 161.342437
L 206.899176 17.198437
" clip-path="url(#pb2fb8a8442)" style="fill: none; stroke: #d9d9d9; stroke-width: 0.6; stroke-linecap: square"/>
     </g>
     <g id="line2d_10">
      <g>
       <use xlink:href="#mad669b78c0" x="206.899176" y="161.342437" style="stroke: #000000; stroke-width: 0.8"/>
      </g>
     </g>
     <g id="text_5">
      <!-- 4 -->
      <g transform="translate(204.354176 174.421187) scale(0.08 -0.08)">
       <defs>
        <path id="DejaVuSerif-34" d="M 2234 1581
L 2234 4063
L 641 1581
L 2234 1581
z
M 3609 0
L 1484 0
L 1484 331
L 2234 331
L 2234 1247
L 197 1247
L 197 1588
L 2241 4750
L 2859 4750
L 2859 1581
L 3750 1581
L 3750 1247
L 2859 1247
L 2859 331
L 3609 331
L 3609 0
z
" transform="scale(0.015625)"/>
       </defs>
       <use xlink:href="#DejaVuSerif-34"/>
      </g>
     </g>
    </g>
    <g id="xtick_6">
     <g id="line2d_11">
      <path d="M 246.63554 161.342437
L 246.63554 17.198437
" clip-path="url(#pb2fb8a8442)" style="fill: none; stroke: #d9d9d9; stroke-width: 0.6; stroke-linecap: square"/>
     </g>
     <g id="line2d_12">
      <g>
       <use xlink:href="#mad669b78c0" x="246.63554" y="161.342437" style="stroke: #000000; stroke-width: 0.8"/>
      </g>
     </g>
     <g id="text_6">
      <!-- 5 -->
      <g transform="translate(244.09054 174.421187) scale(0.08 -0.08)">
       <defs>
        <path id="DejaVuSerif-35" d="M 3219 4666
L 3219 4153
L 1081 4153
L 1081 2816
Q 1244 2928 1461 2984
Q 1678 3041 1947 3041
Q 2703 3041 3140 2622
Q 3578 2203 3578 1478
Q 3578 738 3136 323
Q 2694 -91 1894 -91
Q 1572 -91 1234 -12
Q 897 66 544 225
L 544 1131
L 897 1131
Q 925 688 1179 453
Q 1434 219 1894 219
Q 2388 219 2653 544
Q 2919 869 2919 1478
Q 2919 2084 2655 2407
Q 2391 2731 1894 2731
Q 1613 2731 1398 2631
Q 1184 2531 1019 2322
L 750 2322
L 750 4666
L 3219 4666
z
" transform="scale(0.015625)"/>
       </defs>
       <use xlink:href="#DejaVuSerif-35"/>
      </g>
     </g>
    </g>
    <g id="xtick_7">
     <g id="line2d_13">
      <path d="M 286.371903 161.342437
L 286.371903 17.198437
" clip-path="url(#pb2fb8a8442)" style="fill: none; stroke: #d9d9d9; stroke-width: 0.6; stroke-linecap: square"/>
     </g>
     <g id="line2d_14">
      <g>
       <use xlink:href="#mad669b78c0" x="286.371903" y="161.342437" style="stroke: #000000; stroke-width: 0.8"/>
      </g>
     </g>
     <g id="text_7">
      <!-- 6 -->
      <g transform="translate(283.826903 174.421187) scale(0.08 -0.08)">
       <defs>
        <path id="DejaVuSerif-36" d="M 2094 219
Q 2534 219 2771 542
Q 3009 866 3009 1472
Q 3009 2078 2771 2401
Q 2534 2725 2094 2725
Q 1647 2725 1412 2412
Q 1178 2100 1178 1509
Q 1178 888 1415 553
Q 1653 219 2094 219
z
M 1075 2569
Q 1288 2803 1556 2918
Q 1825 3034 2163 3034
Q 2859 3034 3264 2615
Q 3669 2197 3669 1472
Q 3669 763 3233 336
Q 2797 -91 2069 -91
Q 1278 -91 853 498
Q 428 1088 428 2181
Q 428 3406 931 4078
Q 1434 4750 2350 4750
Q 2597 4750 2869 4703
Q 3141 4656 3425 4563
L 3425 3794
L 3072 3794
Q 3034 4109 2831 4275
Q 2628 4441 2284 4441
Q 1678 4441 1381 3981
Q 1084 3522 1075 2569
z
" transform="scale(0.015625)"/>
       </defs>
       <use xlink:href="#DejaVuSerif-36"/>
      </g>
     </g>
    </g>
    <g id="text_8">
     <!-- pressure level (p0 - p6) -->
     <g transform="translate(114.148594 186.923531) scale(0.09 -0.09)">
      <defs>
       <path id="DejaVuSerif-70" d="M 1313 1825
L 1313 1497
Q 1313 897 1542 583
Q 1772 269 2209 269
Q 2650 269 2876 622
Q 3103 975 3103 1663
Q 3103 2353 2876 2703
Q 2650 3053 2209 3053
Q 1772 3053 1542 2737
Q 1313 2422 1313 1825
z
M 738 2988
L 184 2988
L 184 3322
L 1313 3322
L 1313 2803
Q 1481 3116 1742 3264
Q 2003 3413 2388 3413
Q 3000 3413 3387 2928
Q 3775 2444 3775 1663
Q 3775 881 3387 395
Q 3000 -91 2388 -91
Q 2003 -91 1742 57
Q 1481 206 1313 519
L 1313 -997
L 1856 -997
L 1856 -1331
L 184 -1331
L 184 -997
L 738 -997
L 738 2988
z
" transform="scale(0.015625)"/>
       <path id="DejaVuSerif-72" d="M 3059 3328
L 3059 2497
L 2728 2497
Q 2713 2744 2591 2866
Q 2469 2988 2234 2988
Q 1809 2988 1582 2694
Q 1356 2400 1356 1850
L 1356 331
L 2022 331
L 2022 0
L 263 0
L 263 331
L 781 331
L 781 2994
L 231 2994
L 231 3322
L 1356 3322
L 1356 2731
Q 1525 3078 1790 3245
Q 2056 3413 2438 3413
Q 2578 3413 2733 3391
Q 2888 3369 3059 3328
z
" transform="scale(0.015625)"/>
       <path id="DejaVuSerif-65" d="M 3469 1600
L 991 1600
L 991 1575
Q 991 903 1244 561
Q 1497 219 1991 219
Q 2369 219 2611 417
Q 2853 616 2950 1006
L 3413 1006
Q 3275 459 2904 184
Q 2534 -91 1931 -91
Q 1203 -91 761 389
Q 319 869 319 1663
Q 319 2450 753 2931
Q 1188 3413 1894 3413
Q 2647 3413 3050 2948
Q 3453 2484 3469 1600
z
M 2791 1931
Q 2772 2513 2545 2808
Q 2319 3103 1894 3103
Q 1497 3103 1269 2806
Q 1041 2509 991 1931
L 2791 1931
z
" transform="scale(0.015625)"/>
       <path id="DejaVuSerif-73" d="M 359 184
L 359 959
L 691 959
Q 703 588 923 403
Q 1144 219 1575 219
Q 1963 219 2166 364
Q 2369 509 2369 788
Q 2369 1006 2220 1140
Q 2072 1275 1594 1428
L 1178 1569
Q 750 1706 558 1912
Q 366 2119 366 2438
Q 366 2894 700 3153
Q 1034 3413 1625 3413
Q 1888 3413 2178 3344
Q 2469 3275 2778 3144
L 2778 2419
L 2447 2419
Q 2434 2741 2221 2922
Q 2009 3103 1644 3103
Q 1281 3103 1095 2975
Q 909 2847 909 2591
Q 909 2381 1050 2254
Q 1191 2128 1613 1997
L 2069 1856
Q 2541 1709 2748 1489
Q 2956 1269 2956 922
Q 2956 450 2595 179
Q 2234 -91 1600 -91
Q 1278 -91 972 -22
Q 666 47 359 184
z
" transform="scale(0.015625)"/>
       <path id="DejaVuSerif-75" d="M 2266 3322
L 3341 3322
L 3341 331
L 3884 331
L 3884 0
L 2766 0
L 2766 588
Q 2606 256 2353 82
Q 2100 -91 1766 -91
Q 1213 -91 952 223
Q 691 538 691 1209
L 691 2988
L 172 2988
L 172 3322
L 1269 3322
L 1269 1388
Q 1269 781 1417 556
Q 1566 331 1947 331
Q 2347 331 2556 625
Q 2766 919 2766 1478
L 2766 2988
L 2266 2988
L 2266 3322
z
" transform="scale(0.015625)"/>
       <path id="DejaVuSerif-20" transform="scale(0.015625)"/>
       <path id="DejaVuSerif-6c" d="M 1313 331
L 1856 331
L 1856 0
L 184 0
L 184 331
L 738 331
L 738 4531
L 184 4531
L 184 4863
L 1313 4863
L 1313 331
z
" transform="scale(0.015625)"/>
       <path id="DejaVuSerif-76" d="M 1581 0
L 359 2988
L -19 2988
L -19 3322
L 1509 3322
L 1509 2988
L 978 2988
L 1913 703
L 2847 2988
L 2350 2988
L 2350 3322
L 3597 3322
L 3597 2988
L 3225 2988
L 2003 0
L 1581 0
z
" transform="scale(0.015625)"/>
       <path id="DejaVuSerif-28" d="M 2041 -997
Q 1281 -656 893 83
Q 506 822 506 1931
Q 506 3044 893 3783
Q 1281 4522 2041 4863
L 2041 4556
Q 1559 4225 1350 3623
Q 1141 3022 1141 1931
Q 1141 844 1350 242
Q 1559 -359 2041 -691
L 2041 -997
z
" transform="scale(0.015625)"/>
       <path id="DejaVuSerif-2d" d="M 281 1959
L 1881 1959
L 1881 1472
L 281 1472
L 281 1959
z
" transform="scale(0.015625)"/>
       <path id="DejaVuSerif-29" d="M 453 -997
L 453 -691
Q 934 -359 1145 242
Q 1356 844 1356 1931
Q 1356 3022 1145 3623
Q 934 4225 453 4556
L 453 4863
Q 1216 4522 1603 3783
Q 1991 3044 1991 1931
Q 1991 822 1603 83
Q 1216 -656 453 -997
z
" transform="scale(0.015625)"/>
      </defs>
      <use xlink:href="#DejaVuSerif-70"/>
      <use xlink:href="#DejaVuSerif-72" transform="translate(64.013672 0)"/>
      <use xlink:href="#DejaVuSerif-65" transform="translate(111.816406 0)"/>
      <use xlink:href="#DejaVuSerif-73" transform="translate(170.996094 0)"/>
      <use xlink:href="#DejaVuSerif-73" transform="translate(222.314453 0)"/>
      <use xlink:href="#DejaVuSerif-75" transform="translate(273.632812 0)"/>
      <use xlink:href="#DejaVuSerif-72" transform="translate(338.037109 0)"/>
      <use xlink:href="#DejaVuSerif-65" transform="translate(385.839844 0)"/>
      <use xlink:href="#DejaVuSerif-20" transform="translate(445.019531 0)"/>
      <use xlink:href="#DejaVuSerif-6c" transform="translate(476.806641 0)"/>
      <use xlink:href="#DejaVuSerif-65" transform="translate(508.789062 0)"/>
      <use xlink:href="#DejaVuSerif-76" transform="translate(567.96875 0)"/>
      <use xlink:href="#DejaVuSerif-65" transform="translate(624.462891 0)"/>
      <use xlink:href="#DejaVuSerif-6c" transform="translate(683.642578 0)"/>
      <use xlink:href="#DejaVuSerif-20" transform="translate(715.625 0)"/>
      <use xlink:href="#DejaVuSerif-28" transform="translate(747.412109 0)"/>
      <use xlink:href="#DejaVuSerif-70" transform="translate(786.425781 0)"/>
      <use xlink:href="#DejaVuSerif-30" transform="translate(850.439453 0)"/>
      <use xlink:href="#DejaVuSerif-20" transform="translate(914.0625 0)"/>
      <use xlink:href="#DejaVuSerif-2d" transform="translate(945.849609 0)"/>
      <use xlink:href="#DejaVuSerif-20" transform="translate(979.638672 0)"/>
      <use xlink:href="#DejaVuSerif-70" transform="translate(1011.425781 0)"/>
      <use xlink:href="#DejaVuSerif-36" transform="translate(1075.439453 0)"/>
      <use xlink:href="#DejaVuSerif-29" transform="translate(1139.0625 0)"/>
     </g>
    </g>
   </g>
   <g id="matplotlib.axis_2">
    <g id="ytick_1">
     <g id="line2d_15">
      <path d="M 36.032813 161.342437
L 298.292813 161.342437
" clip-path="url(#pb2fb8a8442)" style="fill: none; stroke: #d9d9d9; stroke-width: 0.6; stroke-linecap: square"/>
     </g>
     <g id="line2d_16">
      <defs>
       <path id="m4819a5cc48" d="M 0 0
L -3.5 0
" style="stroke: #000000; stroke-width: 0.8"/>
      </defs>
      <g>
       <use xlink:href="#m4819a5cc48" x="36.032813" y="161.342437" style="stroke: #000000; stroke-width: 0.8"/>
      </g>
     </g>
     <g id="text_9">
      <!-- 0.0 -->
      <g transform="translate(16.310313 164.381812) scale(0.08 -0.08)">
       <defs>
        <path id="DejaVuSerif-2e" d="M 603 325
Q 603 500 722 622
Q 841 744 1019 744
Q 1191 744 1312 622
Q 1434 500 1434 325
Q 1434 153 1312 31
Q 1191 -91 1019 -91
Q 841 -91 722 29
Q 603 150 603 325
z
" transform="scale(0.015625)"/>
       </defs>
       <use xlink:href="#DejaVuSerif-30"/>
       <use xlink:href="#DejaVuSerif-2e" transform="translate(63.623047 0)"/>
       <use xlink:href="#DejaVuSerif-30" transform="translate(95.410156 0)"/>
      </g>
     </g>
    </g>
    <g id="ytick_2">
     <g id="line2d_17">
      <path d="M 36.032813 132.513637
L 298.292813 132.513637
" clip-path="url(#pb2fb8a8442)" style="fill: none; stroke: #d9d9d9; stroke-width: 0.6; stroke-linecap: square"/>
     </g>
     <g id="line2d_18">
      <g>
       <use xlink:href="#m4819a5cc48" x="36.032813" y="132.513637" style="stroke: #000000; stroke-width: 0.8"/>
      </g>
     </g>
     <g id="text_10">
      <!-- 0.2 -->
      <g transform="translate(16.310313 135.553012) scale(0.08 -0.08)">
       <use xlink:href="#DejaVuSerif-30"/>
       <use xlink:href="#DejaVuSerif-2e" transform="translate(63.623047 0)"/>
       <use xlink:href="#DejaVuSerif-32" transform="translate(95.410156 0)"/>
      </g>
     </g>
    </g>
    <g id="ytick_3">
     <g id="line2d_19">
      <path d="M 36.032813 103.684837
L 298.292813 103.684837
" clip-path="url(#pb2fb8a8442)" style="fill: none; stroke: #d9d9d9; stroke-width: 0.6; stroke-linecap: square"/>
     </g>
     <g id="line2d_20">
      <g>
       <use xlink:href="#m4819a5cc48" x="36.032813" y="103.684837" style="stroke: #000000; stroke-width: 0.8"/>
      </g>
     </g>
     <g id="text_11">
      <!-- 0.4 -->
      <g transform="translate(16.310313 106.724212) scale(0.08 -0.08)">
       <use xlink:href="#DejaVuSerif-30"/>
       <use xlink:href="#DejaVuSerif-2e" transform="translate(63.623047 0)"/>
       <use xlink:href="#DejaVuSerif-34" transform="translate(95.410156 0)"/>
      </g>
     </g>
    </g>
    <g id="ytick_4">
     <g id="line2d_21">
      <path d="M 36.032813 74.856037
L 298.292813 74.856037
" clip-path="url(#pb2fb8a8442)" style="fill: none; stroke: #d9d9d9; stroke-width: 0.6; stroke-linecap: square"/>
     </g>
     <g id="line2d_22">
      <g>
       <use xlink:href="#m4819a5cc48" x="36.032813" y="74.856037" style="stroke: #000000; stroke-width: 0.8"/>
      </g>
     </g>
     <g id="text_12">
      <!-- 0.6 -->
      <g transform="translate(16.310313 77.895412) scale(0.08 -0.08)">
       <use xlink:href="#DejaVuSerif-30"/>
       <use xlink:href="#DejaVuSerif-2e" transform="translate(63.623047 0)"/>
       <use xlink:href="#DejaVuSerif-36" transform="translate(95.410156 0)"/>
      </g>
     </g>
    </g>
    <g id="ytick_5">
     <g id="line2d_23">
      <path d="M 36.032813 46.027237
L 298.292813 46.027237
" clip-path="url(#pb2fb8a8442)" style="fill: none; stroke: #d9d9d9; stroke-width: 0.6; stroke-linecap: square"/>
     </g>
     <g id="line2d_24">
      <g>
       <use xlink:href="#m4819a5cc48" x="36.032813" y="46.027237" style="stroke: #000000; stroke-width: 0.8"/>
      </g>
     </g>
     <g id="text_13">
      <!-- 0.8 -->
      <g transform="translate(16.310313 49.066612) scale(0.08 -0.08)">
       <defs>
        <path id="DejaVuSerif-38" d="M 2981 1275
Q 2981 1775 2732 2051
Q 2484 2328 2034 2328
Q 1584 2328 1336 2051
Q 1088 1775 1088 1275
Q 1088 772 1336 495
Q 1584 219 2034 219
Q 2484 219 2732 495
Q 2981 772 2981 1275
z
M 2853 3541
Q 2853 3966 2637 4203
Q 2422 4441 2034 4441
Q 1650 4441 1433 4203
Q 1216 3966 1216 3541
Q 1216 3113 1433 2875
Q 1650 2638 2034 2638
Q 2422 2638 2637 2875
Q 2853 3113 2853 3541
z
M 2516 2484
Q 3047 2413 3344 2092
Q 3641 1772 3641 1275
Q 3641 619 3225 264
Q 2809 -91 2034 -91
Q 1263 -91 845 264
Q 428 619 428 1275
Q 428 1772 725 2092
Q 1022 2413 1556 2484
Q 1084 2569 832 2842
Q 581 3116 581 3541
Q 581 4103 968 4426
Q 1356 4750 2034 4750
Q 2713 4750 3100 4426
Q 3488 4103 3488 3541
Q 3488 3116 3236 2842
Q 2984 2569 2516 2484
z
" transform="scale(0.015625)"/>
       </defs>
       <use xlink:href="#DejaVuSerif-30"/>
       <use xlink:href="#DejaVuSerif-2e" transform="translate(63.623047 0)"/>
       <use xlink:href="#DejaVuSerif-38" transform="translate(95.410156 0)"/>
      </g>
     </g>
    </g>
    <g id="ytick_6">
     <g id="line2d_25">
      <path d="M 36.032813 17.198437
L 298.292813 17.198437
" clip-path="url(#pb2fb8a8442)" style="fill: none; stroke: #d9d9d9; stroke-width: 0.6; stroke-linecap: square"/>
     </g>
     <g id="line2d_26">
      <g>
       <use xlink:href="#m4819a5cc48" x="36.032813" y="17.198437" style="stroke: #000000; stroke-width: 0.8"/>
      </g>
     </g>
     <g id="text_14">
      <!-- 1.0 -->
      <g transform="translate(16.310313 20.237812) scale(0.08 -0.08)">
       <use xlink:href="#DejaVuSerif-31"/>
       <use xlink:href="#DejaVuSerif-2e" transform="translate(63.623047 0)"/>
       <use xlink:href="#DejaVuSerif-30" transform="translate(95.410156 0)"/>
      </g>
     </g>
    </g>
    <g id="text_15">
     <!-- P(false report) -->
     <g transform="translate(10.438594 122.363719) rotate(-90) scale(0.09 -0.09)">
      <defs>
       <path id="DejaVuSerif-50" d="M 1581 2375
L 2406 2375
Q 2872 2375 3115 2626
Q 3359 2878 3359 3353
Q 3359 3831 3115 4081
Q 2872 4331 2406 4331
L 1581 4331
L 1581 2375
z
M 353 0
L 353 331
L 947 331
L 947 4331
L 353 4331
L 353 4666
L 2559 4666
Q 3259 4666 3668 4311
Q 4078 3956 4078 3353
Q 4078 2753 3668 2397
Q 3259 2041 2559 2041
L 1581 2041
L 1581 331
L 2303 331
L 2303 0
L 353 0
z
" transform="scale(0.015625)"/>
       <path id="DejaVuSerif-66" d="M 2753 4078
L 2450 4078
Q 2447 4313 2317 4434
Q 2188 4556 1941 4556
Q 1619 4556 1487 4379
Q 1356 4203 1356 3750
L 1356 3322
L 2284 3322
L 2284 2988
L 1356 2988
L 1356 331
L 2094 331
L 2094 0
L 231 0
L 231 331
L 781 331
L 781 2988
L 231 2988
L 231 3322
L 781 3322
L 781 3738
Q 781 4294 1070 4578
Q 1359 4863 1919 4863
Q 2128 4863 2337 4825
Q 2547 4788 2753 4709
L 2753 4078
z
" transform="scale(0.015625)"/>
       <path id="DejaVuSerif-61" d="M 2547 1044
L 2547 1747
L 1806 1747
Q 1378 1747 1168 1562
Q 959 1378 959 997
Q 959 650 1171 447
Q 1384 244 1747 244
Q 2106 244 2326 466
Q 2547 688 2547 1044
z
M 3122 2075
L 3122 331
L 3634 331
L 3634 0
L 2547 0
L 2547 359
Q 2356 128 2106 18
Q 1856 -91 1522 -91
Q 969 -91 644 203
Q 319 497 319 997
Q 319 1513 691 1797
Q 1063 2081 1741 2081
L 2547 2081
L 2547 2309
Q 2547 2688 2317 2895
Q 2088 3103 1672 3103
Q 1328 3103 1125 2947
Q 922 2791 872 2484
L 575 2484
L 575 3156
Q 875 3284 1158 3348
Q 1441 3413 1709 3413
Q 2400 3413 2761 3070
Q 3122 2728 3122 2075
z
" transform="scale(0.015625)"/>
       <path id="DejaVuSerif-6f" d="M 1925 219
Q 2388 219 2623 584
Q 2859 950 2859 1663
Q 2859 2375 2623 2739
Q 2388 3103 1925 3103
Q 1463 3103 1227 2739
Q 991 2375 991 1663
Q 991 950 1228 584
Q 1466 219 1925 219
z
M 1925 -91
Q 1200 -91 759 389
Q 319 869 319 1663
Q 319 2456 758 2934
Q 1197 3413 1925 3413
Q 2653 3413 3092 2934
Q 3531 2456 3531 1663
Q 3531 869 3092 389
Q 2653 -91 1925 -91
z
" transform="scale(0.015625)"/>
       <path id="DejaVuSerif-74" d="M 691 2988
L 184 2988
L 184 3322
L 691 3322
L 691 4353
L 1269 4353
L 1269 3322
L 2350 3322
L 2350 2988
L 1269 2988
L 1269 878
Q 1269 456 1350 337
Q 1431 219 1650 219
Q 1875 219 1978 351
Q 2081 484 2088 781
L 2522 781
Q 2497 328 2275 118
Q 2053 -91 1600 -91
Q 1103 -91 897 129
Q 691 350 691 878
L 691 2988
z
" transform="scale(0.015625)"/>
      </defs>
      <use xlink:href="#DejaVuSerif-50"/>
      <use xlink:href="#DejaVuSerif-28" transform="translate(67.285156 0)"/>
      <use xlink:href="#DejaVuSerif-66" transform="translate(106.298828 0)"/>
      <use xlink:href="#DejaVuSerif-61" transform="translate(143.310547 0)"/>
      <use xlink:href="#DejaVuSerif-6c" transform="translate(202.929688 0)"/>
      <use xlink:href="#DejaVuSerif-73" transform="translate(234.912109 0)"/>
      <use xlink:href="#DejaVuSerif-65" transform="translate(286.230469 0)"/>
      <use xlink:href="#DejaVuSerif-20" transform="translate(345.410156 0)"/>
      <use xlink:href="#DejaVuSerif-72" transform="translate(377.197266 0)"/>
      <use xlink:href="#DejaVuSerif-65" transform="translate(425 0)"/>
      <use xlink:href="#DejaVuSerif-70" transform="translate(484.179688 0)"/>
      <use xlink:href="#DejaVuSerif-6f" transform="translate(548.193359 0)"/>
      <use xlink:href="#DejaVuSerif-72" transform="translate(608.398438 0)"/>
      <use xlink:href="#DejaVuSerif-74" transform="translate(656.201172 0)"/>
      <use xlink:href="#DejaVuSerif-29" transform="translate(696.386719 0)"/>
     </g>
    </g>
   </g>
   <g id="patch_3">
    <path d="M 36.032813 161.342437
L 36.032813 17.198437
" style="fill: none; stroke: #000000; stroke-width: 0.8; stroke-linejoin: miter; stroke-linecap: square"/>
   </g>
   <g id="patch_4">
    <path d="M 36.032813 161.342437
L 298.292813 161.342437
" style="fill: none; stroke: #000000; stroke-width: 0.8; stroke-linejoin: miter; stroke-linecap: square"/>
   </g>
   <g id="line2d_27">
    <path d="M 47.953722 159.439737
L 87.690085 146.928037
L 127.426449 144.117229
L 167.162813 81.183959
L 206.899176 70.027213
L 246.63554 37.465084
L 286.371903 34.942564
" clip-path="url(#pb2fb8a8442)" style="fill: none; stroke: #2166ac; stroke-width: 1.8; stroke-linecap: square"/>
    <defs>
     <path id="m933dfd66a6" d="M 0 2.5
C 0.663008 2.5 1.29895 2.236584 1.767767 1.767767
C 2.236584 1.29895 2.5 0.663008 2.5 0
C 2.5 -0.663008 2.236584 -1.29895 1.767767 -1.767767
C 1.29895 -2.236584 0.663008 -2.5 0 -2.5
C -0.663008 -2.5 -1.29895 -2.236584 -1.767767 -1.767767
C -2.236584 -1.29895 -2.5 -0.663008 -2.5 0
C -2.5 0.663008 -2.236584 1.29895 -1.767767 1.767767
C -1.29895 2.236584 -0.663008 2.5 0 2.5
z
" style="stroke: #2166ac"/>
    </defs>
    <g clip-path="url(#pb2fb8a8442)">
     <use xlink:href="#m933dfd66a6" x="47.953722" y="159.439737" style="fill: #2166ac; stroke: #2166ac"/>
     <use xlink:href="#m933dfd66a6" x="87.690085" y="146.928037" style="fill: #2166ac; stroke: #2166ac"/>
     <use xlink:href="#m933dfd66a6" x="127.426449" y="144.117229" style="fill: #2166ac; stroke: #2166ac"/>
     <use xlink:href="#m933dfd66a6" x="167.162813" y="81.183959" style="fill: #2166ac; stroke: #2166ac"/>
     <use xlink:href="#m933dfd66a6" x="206.899176" y="70.027213" style="fill: #2166ac; stroke: #2166ac"/>
     <use xlink:href="#m933dfd66a6" x="246.63554" y="37.465084" style="fill: #2166ac; stroke: #2166ac"/>
     <use xlink:href="#m933dfd66a6" x="286.371903" y="34.942564" style="fill: #2166ac; stroke: #2166ac"/>
    </g>
   </g>
   <g id="text_16">
    <!-- False-report rate rises monotonically with pressure -->
    <g transform="translate(36.032813 11.198437) scale(0.1 -0.1)">
     <defs>
      <path id="DejaVuSerif-46" d="M 353 0
L 353 331
L 947 331
L 947 4331
L 353 4331
L 353 4666
L 4172 4666
L 4172 3628
L 3788 3628
L 3788 4281
L 1581 4281
L 1581 2719
L 3175 2719
L 3175 3303
L 3559 3303
L 3559 1753
L 3175 1753
L 3175 2338
L 1581 2338
L 1581 331
L 2328 331
L 2328 0
L 353 0
z
" transform="scale(0.015625)"/>
      <path id="DejaVuSerif-69" d="M 622 4353
Q 622 4497 726 4603
Q 831 4709 978 4709
Q 1122 4709 1226 4603
Q 1331 4497 1331 4353
Q 1331 4206 1228 4103
Q 1125 4000 978 4000
Q 831 4000 726 4103
Q 622 4206 622 4353
z
M 1356 331
L 1900 331
L 1900 0
L 231 0
L 231 331
L 781 331
L 781 2988
L 231 2988
L 231 3322
L 1356 3322
L 1356 331
z
" transform="scale(0.015625)"/>
      <path id="DejaVuSerif-6d" d="M 3316 2675
Q 3481 3041 3739 3227
Q 3997 3413 4341 3413
Q 4863 3413 5119 3089
Q 5375 2766 5375 2113
L 5375 331
L 5894 331
L 5894 0
L 4300 0
L 4300 331
L 4800 331
L 4800 2047
Q 4800 2556 4650 2772
Q 4500 2988 4153 2988
Q 3769 2988 3567 2697
Q 3366 2406 3366 1850
L 3366 331
L 3866 331
L 3866 0
L 2291 0
L 2291 331
L 2791 331
L 2791 2069
Q 2791 2566 2641 2777
Q 2491 2988 2144 2988
Q 1759 2988 1557 2697
Q 1356 2406 1356 1850
L 1356 331
L 1856 331
L 1856 0
L 263 0
L 263 331
L 781 331
L 781 2994
L 231 2994
L 231 3322
L 1356 3322
L 1356 2731
Q 1516 3063 1762 3238
Q 2009 3413 2322 3413
Q 2709 3413 2968 3220
Q 3228 3028 3316 2675
z
" transform="scale(0.015625)"/>
      <path id="DejaVuSerif-6e" d="M 263 0
L 263 331
L 781 331
L 781 2988
L 231 2988
L 231 3322
L 1356 3322
L 1356 2731
Q 1516 3069 1770 3241
Q 2025 3413 2363 3413
Q 2913 3413 3172 3097
Q 3431 2781 3431 2113
L 3431 331
L 3944 331
L 3944 0
L 2356 0
L 2356 331
L 2853 331
L 2853 1931
Q 2853 2541 2703 2767
Q 2553 2994 2175 2994
Q 1775 2994 1565 2701
Q 1356 2409 1356 1850
L 1356 331
L 1856 331
L 1856 0
L 263 0
z
" transform="scale(0.015625)"/>
      <path id="DejaVuSerif-63" d="M 3291 997
Q 3169 466 2822 187
Q 2475 -91 1925 -91
Q 1200 -91 759 389
Q 319 869 319 1663
Q 319 2459 759 2936
Q 1200 3413 1925 3413
Q 2241 3413 2553 3339
Q 2866 3266 3181 3116
L 3181 2266
L 2847 2266
Q 2781 2703 2561 2903
Q 2341 3103 1931 3103
Q 1466 3103 1228 2742
Q 991 2381 991 1663
Q 991 944 1227 581
Q 1463 219 1931 219
Q 2303 219 2525 412
Q 2747 606 2828 997
L 3291 997
z
" transform="scale(0.015625)"/>
      <path id="DejaVuSerif-79" d="M 1381 -609
L 1600 -56
L 359 2988
L -19 2988
L -19 3322
L 1509 3322
L 1509 2988
L 978 2988
L 1913 703
L 2847 2988
L 2350 2988
L 2350 3322
L 3597 3322
L 3597 2988
L 3225 2988
L 1703 -750
Q 1547 -1138 1356 -1280
Q 1166 -1422 819 -1422
Q 672 -1422 517 -1397
Q 363 -1372 206 -1325
L 206 -691
L 500 -691
Q 519 -903 608 -995
Q 697 -1088 884 -1088
Q 1056 -1088 1161 -992
Q 1266 -897 1381 -609
z
" transform="scale(0.015625)"/>
      <path id="DejaVuSerif-77" d="M 3072 3322
L 3922 728
L 4672 2988
L 4191 2988
L 4191 3322
L 5394 3322
L 5394 2988
L 5025 2988
L 4038 0
L 3559 0
L 2741 2484
L 1919 0
L 1459 0
L 475 2988
L 103 2988
L 103 3322
L 1606 3322
L 1606 2988
L 1069 2988
L 1813 728
L 2669 3322
L 3072 3322
z
" transform="scale(0.015625)"/>
      <path id="DejaVuSerif-68" d="M 263 0
L 263 331
L 781 331
L 781 4531
L 231 4531
L 231 4863
L 1356 4863
L 1356 2731
Q 1516 3069 1770 3241
Q 2025 3413 2363 3413
Q 2913 3413 3172 3097
Q 3431 2781 3431 2113
L 3431 331
L 3944 331
L 3944 0
L 2356 0
L 2356 331
L 2853 331
L 2853 1931
Q 2853 2541 2704 2764
Q 2556 2988 2175 2988
Q 1775 2988 1565 2697
Q 1356 2406 1356 1850
L 1356 331
L 1856 331
L 1856 0
L 263 0
z
" transform="scale(0.015625)"/>
     </defs>
     <use xlink:href="#DejaVuSerif-46"/>
     <use xlink:href="#DejaVuSerif-61" transform="translate(62.634766 0)"/>
     <use xlink:href="#DejaVuSerif-6c" transform="translate(122.253906 0)"/>
     <use xlink:href="#DejaVuSerif-73" transform="translate(154.236328 0)"/>
     <use xlink:href="#DejaVuSerif-65" transform="translate(205.554688 0)"/>
     <use xlink:href="#DejaVuSerif-2d" transform="translate(264.734375 0)"/>
     <use xlink:href="#DejaVuSerif-72" transform="translate(298.523438 0)"/>
     <use xlink:href="#DejaVuSerif-65" transform="translate(346.326172 0)"/>
     <use xlink:href="#DejaVuSerif-70" transform="translate(405.505859 0)"/>
     <use xlink:href="#DejaVuSerif-6f" transform="translate(469.519531 0)"/>
     <use xlink:href="#DejaVuSerif-72" transform="translate(529.724609 0)"/>
     <use xlink:href="#DejaVuSerif-74" transform="translate(577.527344 0)"/>
     <use xlink:href="#DejaVuSerif-20" transform="translate(617.712891 0)"/>
     <use xlink:href="#DejaVuSerif-72" transform="translate(649.5 0)"/>
     <use xlink:href="#DejaVuSerif-61" transform="translate(697.302734 0)"/>
     <use xlink:href="#DejaVuSerif-74" transform="translate(756.921875 0)"/>
     <use xlink:href="#DejaVuSerif-65" transform="translate(797.107422 0)"/>
     <use xlink:href="#DejaVuSerif-20" transform="translate(856.287109 0)"/>
     <use xlink:href="#DejaVuSerif-72" transform="translate(888.074219 0)"/>
     <use xlink:href="#DejaVuSerif-69" transform="translate(935.876953 0)"/>
     <use xlink:href="#DejaVuSerif-73" transform="translate(967.859375 0)"/>
     <use xlink:href="#DejaVuSerif-65" transform="translate(1019.177734 0)"/>
     <use xlink:href="#DejaVuSerif-73" transform="translate(1078.357422 0)"/>
     <use xlink:href="#DejaVuSerif-20" transform="translate(1129.675781 0)"/>
     <use xlink:href="#DejaVuSerif-6d" transform="translate(1161.462891 0)"/>
     <use xlink:href="#DejaVuSerif-6f" transform="translate(1256.287109 0)"/>
     <use xlink:href="#DejaVuSerif-6e" transform="translate(1316.492188 0)"/>
     <use xlink:href="#DejaVuSerif-6f" transform="translate(1380.896484 0)"/>
     <use xlink:href="#DejaVuSerif-74" transform="translate(1441.101562 0)"/>
     <use xlink:href="#DejaVuSerif-6f" transform="translate(1481.287109 0)"/>
     <use xlink:href="#DejaVuSerif-6e" transform="translate(1541.492188 0)"/>
     <use xlink:href="#DejaVuSerif-69" transform="translate(1605.896484 0)"/>
     <use xlink:href="#DejaVuSerif-63" transform="translate(1637.878906 0)"/>
     <use xlink:href="#DejaVuSerif-61" transform="translate(1693.884766 0)"/>
     <use xlink:href="#DejaVuSerif-6c" transform="translate(1753.503906 0)"/>
     <use xlink:href="#DejaVuSerif-6c" transform="translate(1785.486328 0)"/>
     <use xlink:href="#DejaVuSerif-79" transform="translate(1817.46875 0)"/>
     <use xlink:href="#DejaVuSerif-20" transform="translate(1873.962891 0)"/>
     <use xlink:href="#DejaVuSerif-77" transform="translate(1905.75 0)"/>
     <use xlink:href="#DejaVuSerif-69" transform="translate(1991.345703 0)"/>
     <use xlink:href="#DejaVuSerif-74" transform="translate(2023.328125 0)"/>
     <use xlink:href="#DejaVuSerif-68" transform="translate(2063.513672 0)"/>
     <use xlink:href="#DejaVuSerif-20" transform="translate(2127.917969 0)"/>
     <use xlink:href="#DejaVuSerif-70" transform="translate(2159.705078 0)"/>
     <use xlink:href="#DejaVuSerif-72" transform="translate(2223.71875 0)"/>
     <use xlink:href="#DejaVuSerif-65" transform="translate(2271.521484 0)"/>
     <use xlink:href="#DejaVuSerif-73" transform="translate(2330.701172 0)"/>
     <use xlink:href="#DejaVuSerif-73" transform="translate(2382.019531 0)"/>
     <use xlink:href="#DejaVuSerif-75" transform="translate(2433.337891 0)"/>
     <use xlink:href="#DejaVuSerif-72" transform="translate(2497.742188 0)"/>
     <use xlink:href="#DejaVuSerif-65" transform="translate(2545.544922 0)"/>
    </g>
   </g>
  </g>
 </g>
 <defs>
  <clipPath id="pb2fb8a8442">
   <rect x="36.032813" y="17.198437" width="262.26" height="144.144"/>
  </clipPath>
 </defs>
</svg>
